<svg id="svg" version="1.1" xmlns="http://www.w3.org/2000/svg" xmlns:xlink="http://www.w3.org/1999/xlink" width="400" height="400" viewBox="0, 0, 400,400"><g id="svgg"><path id="path0" d="M240.274 12.900 C 239.958 15.369,240.202 19.562,240.690 20.050 C 240.975 20.335,243.890 20.376,249.786 20.177 L 258.463 19.885 258.869 18.843 C 259.298 17.741,259.130 12.457,258.641 11.666 C 258.436 11.334,255.786 11.200,249.422 11.200 L 240.491 11.200 240.274 12.900 M81.300 21.625 C 79.973 22.140,79.914 28.912,81.230 29.616 C 82.211 30.141,97.374 29.719,98.500 29.135 C 99.377 28.680,99.550 22.272,98.700 21.726 C 98.011 21.284,82.413 21.193,81.300 21.625 M231.300 21.620 C 229.989 22.136,229.871 38.889,231.174 39.586 C 232.177 40.123,237.423 40.123,238.426 39.586 C 239.346 39.094,239.653 22.327,238.753 21.771 C 238.056 21.340,232.305 21.224,231.300 21.620 M260.998 21.603 C 260.710 22.069,260.744 78.188,261.032 78.940 C 261.347 79.761,267.526 79.914,268.320 79.120 C 269.033 78.407,269.013 22.183,268.300 21.729 C 267.651 21.316,261.244 21.205,260.998 21.603 M71.100 31.632 C 70.241 32.132,70.058 38.698,70.880 39.520 C 71.528 40.168,78.072 40.168,78.720 39.520 C 79.019 39.221,79.200 37.742,79.200 35.600 C 79.200 33.458,79.019 31.979,78.720 31.680 C 78.128 31.088,72.100 31.050,71.100 31.632 M100.833 31.760 C 100.535 32.119,100.409 33.595,100.484 35.860 L 100.600 39.400 104.340 39.516 C 106.545 39.584,108.289 39.458,108.587 39.210 C 109.375 38.557,109.244 32.343,108.430 31.713 C 107.509 31.000,101.432 31.038,100.833 31.760 M61.020 41.968 C 60.885 42.186,60.736 66.968,60.687 97.039 L 60.600 151.714 59.535 152.509 C 58.762 153.086,57.250 153.444,54.021 153.815 C 47.843 154.524,47.920 154.416,49.023 160.811 C 49.978 166.345,50.140 166.179,43.200 166.789 C 40.670 167.011,37.189 167.464,35.465 167.796 C 33.740 168.128,31.833 168.400,31.227 168.400 C 29.174 168.400,28.784 169.366,29.039 173.825 C 29.412 180.365,29.794 180.773,34.860 180.044 C 41.336 179.113,49.160 178.669,49.796 179.197 C 50.269 179.590,50.400 180.674,50.400 184.216 C 50.400 190.303,50.194 190.002,54.343 189.991 C 59.737 189.977,59.440 190.698,59.200 178.200 C 58.933 164.328,58.233 165.468,67.565 164.586 C 70.994 164.263,74.700 163.826,75.800 163.617 C 76.900 163.407,80.140 163.038,83.000 162.797 C 85.860 162.555,89.192 162.103,90.404 161.793 C 91.616 161.482,95.666 160.945,99.404 160.599 C 103.142 160.252,107.178 159.796,108.373 159.585 C 112.257 158.897,112.539 159.154,113.002 163.800 C 113.697 170.776,114.295 171.272,120.427 169.957 C 123.937 169.204,124.504 169.934,125.000 175.840 L 125.400 180.600 127.623 180.718 C 128.845 180.782,130.915 180.659,132.223 180.444 C 135.353 179.928,135.654 180.293,136.336 185.426 C 137.194 191.875,136.819 191.600,144.131 191.163 C 147.661 190.952,147.823 191.174,148.100 196.605 C 148.408 202.640,149.010 202.874,159.400 201.010 C 161.160 200.694,165.030 200.237,168.000 199.995 C 170.970 199.753,174.930 199.299,176.800 198.986 C 178.670 198.674,183.350 198.140,187.200 197.800 C 191.050 197.460,195.100 197.013,196.200 196.806 C 197.300 196.599,201.275 196.149,205.033 195.806 C 208.792 195.463,212.406 195.028,213.065 194.839 C 213.725 194.650,215.547 194.366,217.115 194.209 C 220.934 193.825,220.968 193.765,220.624 188.170 C 220.242 181.977,220.350 181.811,225.004 181.434 C 229.965 181.031,230.546 180.696,230.245 178.416 C 230.113 177.417,229.888 175.040,229.745 173.133 L 229.486 169.666 231.043 169.246 C 231.899 169.015,233.997 168.715,235.704 168.579 C 239.717 168.258,239.742 168.213,239.376 161.788 L 239.093 156.831 240.047 156.458 C 240.571 156.253,242.710 155.873,244.800 155.615 C 246.890 155.356,250.071 154.944,251.870 154.698 C 255.859 154.153,256.259 154.385,256.575 157.428 C 256.699 158.623,256.906 160.614,257.035 161.854 C 257.344 164.804,258.526 166.137,260.366 165.610 C 261.047 165.414,263.005 165.132,264.717 164.983 C 268.750 164.631,268.768 164.655,269.344 171.052 C 269.990 178.220,270.309 178.347,282.400 176.221 C 284.270 175.892,288.479 175.428,291.754 175.191 C 295.029 174.953,298.449 174.500,299.354 174.183 C 300.259 173.866,304.060 173.325,307.800 172.980 C 311.540 172.636,315.410 172.173,316.400 171.952 C 317.972 171.601,329.927 170.307,337.041 169.717 C 340.259 169.450,340.159 169.139,340.400 180.200 L 340.600 189.400 343.600 189.523 C 345.250 189.590,347.191 189.536,347.913 189.402 L 349.225 189.159 349.186 173.082 L 349.147 157.004 350.137 156.153 C 350.681 155.685,351.966 155.176,352.992 155.022 C 356.407 154.510,356.640 153.797,355.527 147.262 C 354.914 143.664,355.663 142.944,360.739 142.250 C 362.760 141.973,364.604 141.556,364.838 141.322 C 365.282 140.878,364.873 133.088,363.942 124.242 C 363.255 117.709,363.664 117.860,351.000 119.466 C 348.360 119.801,344.940 120.230,343.400 120.420 C 341.860 120.610,338.329 120.773,335.554 120.782 C 331.123 120.798,330.383 120.898,329.487 121.603 C 328.660 122.254,327.267 122.520,322.133 123.010 C 318.650 123.342,314.401 123.877,312.690 124.200 C 304.266 125.790,299.607 125.452,299.594 123.251 C 299.581 121.073,300.368 121.157,280.010 121.152 C 258.403 121.145,260.255 120.744,260.210 125.443 C 260.161 130.563,260.413 130.424,249.384 131.388 C 245.415 131.734,241.545 132.185,240.784 132.389 C 240.023 132.593,236.312 133.037,232.538 133.375 C 228.763 133.713,224.443 134.173,222.938 134.398 C 213.079 135.867,210.000 135.631,210.000 133.409 C 210.000 130.751,210.376 130.800,189.800 130.800 C 167.773 130.800,169.600 130.351,169.600 135.761 C 169.600 141.016,169.664 140.974,160.755 141.603 C 157.433 141.838,153.339 142.294,151.657 142.617 C 149.976 142.940,145.540 143.484,141.800 143.825 C 138.060 144.167,134.280 144.605,133.400 144.801 C 132.520 144.996,128.560 145.446,124.600 145.800 C 120.640 146.155,115.780 146.694,113.800 146.999 C 111.820 147.304,107.410 147.757,104.000 148.005 C 100.590 148.253,96.180 148.704,94.200 149.007 C 92.220 149.310,88.950 149.570,86.933 149.585 C 83.312 149.611,82.497 149.724,77.000 150.958 C 73.582 151.725,69.774 151.795,69.324 151.100 C 69.146 150.825,68.910 126.120,68.800 96.200 L 68.600 41.800 64.933 41.685 C 62.809 41.619,61.162 41.738,61.020 41.968 M110.970 42.133 C 110.858 42.427,110.818 44.182,110.883 46.033 L 111.000 49.400 119.987 49.400 L 128.974 49.400 129.020 46.000 C 129.046 44.130,128.895 42.375,128.685 42.100 C 128.112 41.351,111.258 41.383,110.970 42.133 M220.818 42.178 C 220.083 43.064,220.234 59.204,220.984 59.955 C 221.675 60.646,228.284 60.594,229.132 59.891 C 229.677 59.438,229.517 44.301,228.946 42.300 C 228.676 41.355,221.589 41.249,220.818 42.178 M131.196 51.604 C 130.117 52.683,130.023 58.366,131.067 59.410 C 131.710 60.053,137.932 60.203,138.544 59.589 C 138.968 59.165,138.942 51.982,138.515 51.555 C 137.643 50.683,132.080 50.720,131.196 51.604 M141.330 71.475 C 140.388 71.662,139.760 77.303,140.503 78.900 C 141.011 79.993,217.928 79.985,218.917 78.891 C 219.530 78.215,219.544 72.211,218.935 71.602 C 218.690 71.356,142.557 71.232,141.330 71.475 M90.037 81.755 C 89.332 82.605,89.606 119.368,90.323 120.080 C 90.964 120.717,127.930 120.586,128.598 119.946 C 129.393 119.183,129.790 102.949,129.041 101.807 L 128.382 100.800 119.400 100.800 L 110.418 100.800 109.773 99.815 C 109.289 99.076,109.159 98.080,109.254 95.819 C 109.425 91.707,109.161 91.471,104.477 91.566 C 99.615 91.664,99.200 91.195,99.200 85.593 C 99.200 81.012,99.442 81.214,93.949 81.205 C 91.488 81.202,90.366 81.359,90.037 81.755 M271.263 81.553 C 270.621 81.960,270.332 88.321,270.920 89.100 C 271.318 89.627,297.236 89.868,298.567 89.357 C 299.804 88.883,299.460 82.079,298.174 81.590 C 296.908 81.109,272.018 81.074,271.263 81.553 M300.588 92.505 C 300.463 93.002,300.415 94.757,300.481 96.405 L 300.600 99.400 304.000 99.518 C 309.295 99.702,309.164 99.794,309.126 95.898 C 309.085 91.603,309.081 91.600,304.559 91.600 C 301.004 91.600,300.804 91.646,300.588 92.505 M310.972 101.771 C 310.858 102.227,310.818 104.220,310.882 106.200 L 311.000 109.800 314.000 109.888 C 318.969 110.035,318.805 110.165,318.772 106.092 C 318.730 100.936,318.787 101.006,314.650 100.971 C 311.460 100.943,311.163 101.008,310.972 101.771 M321.014 111.700 C 320.637 112.867,320.561 117.888,320.905 118.900 C 321.274 119.989,321.315 120.000,324.808 120.000 L 328.338 120.000 328.738 118.700 C 329.084 117.574,329.112 116.022,328.858 112.100 C 328.789 111.036,321.350 110.657,321.014 111.700 M301.449 138.053 C 301.704 138.257,302.022 140.498,302.186 143.233 C 302.522 148.872,302.182 148.559,307.439 148.071 C 312.835 147.571,312.819 147.558,313.644 153.045 C 314.595 159.368,314.272 159.837,308.629 160.332 C 303.549 160.778,303.241 160.426,302.582 153.430 C 302.190 149.262,302.431 149.466,298.239 149.773 C 296.238 149.919,293.994 150.144,293.254 150.273 L 291.909 150.506 292.166 152.953 C 292.308 154.299,292.615 156.360,292.847 157.533 C 293.651 161.586,293.051 162.208,287.861 162.706 C 282.513 163.220,282.355 163.061,281.603 156.429 C 281.054 151.576,281.441 151.881,276.238 152.206 C 270.727 152.550,270.901 152.712,270.379 146.763 C 269.873 140.987,270.132 140.612,275.065 139.993 C 280.511 139.310,280.696 139.487,281.168 145.816 C 281.580 151.332,281.629 151.407,284.457 150.859 C 285.636 150.631,287.733 150.326,289.118 150.181 L 291.637 149.917 291.518 144.383 C 291.437 140.566,291.544 138.703,291.865 138.379 C 292.838 137.397,300.315 137.143,301.449 138.053 M164.493 153.700 C 164.815 154.195,165.412 156.735,165.820 159.343 C 166.672 164.802,166.376 164.532,171.013 164.086 C 177.017 163.510,177.019 163.512,177.412 170.031 C 177.738 175.433,177.431 175.132,182.187 174.711 C 188.496 174.151,188.493 174.148,189.214 180.351 C 189.629 183.921,189.613 184.559,189.095 185.077 C 188.173 185.999,180.353 187.246,179.647 186.584 C 179.216 186.180,177.697 179.047,177.606 177.000 C 177.532 175.359,175.380 175.101,170.755 176.180 C 167.540 176.930,167.461 177.008,167.749 179.154 C 167.884 180.169,168.164 182.251,168.369 183.780 C 168.916 187.853,168.521 188.206,162.337 189.183 C 158.186 189.839,158.414 190.103,157.221 183.234 C 156.247 177.621,156.329 177.712,152.791 178.319 C 146.267 179.438,146.234 179.410,145.646 172.451 C 145.168 166.787,145.310 166.924,140.839 167.792 C 135.027 168.921,134.244 168.204,133.769 161.320 C 133.435 156.458,133.358 156.539,138.835 155.977 C 143.462 155.502,144.399 155.901,144.401 158.344 C 144.401 160.005,145.551 166.111,145.935 166.495 C 146.471 167.031,154.480 166.092,155.158 165.413 C 155.638 164.934,155.657 164.478,155.271 162.718 C 153.575 154.987,153.902 154.241,159.284 153.566 C 161.097 153.338,162.660 153.073,162.757 152.976 C 163.184 152.549,163.954 152.870,164.493 153.700 M161.400 165.236 C 156.066 165.981,155.975 166.146,156.609 173.954 L 156.881 177.309 160.540 177.043 C 162.553 176.897,164.811 176.667,165.557 176.533 L 166.914 176.290 166.640 171.448 C 166.222 164.048,166.611 164.509,161.400 165.236 M270.700 191.653 L 269.600 192.467 269.600 201.024 L 269.600 209.582 270.624 210.253 C 271.506 210.830,272.715 210.911,279.328 210.835 C 283.914 210.782,287.449 210.914,288.104 211.163 L 289.200 211.580 289.200 215.728 C 289.200 221.691,288.425 221.335,300.672 221.011 C 317.933 220.555,318.023 220.550,318.596 219.955 C 319.567 218.948,319.423 193.656,318.438 192.061 C 318.279 191.804,310.314 191.570,296.394 191.415 C 284.408 191.281,273.970 191.097,273.200 191.005 C 272.222 190.889,271.468 191.085,270.700 191.653 M41.100 192.032 C 39.949 192.703,40.021 288.969,41.174 289.586 C 42.153 290.110,46.817 290.126,48.174 289.610 L 49.200 289.220 49.200 240.653 C 49.200 196.735,49.139 192.062,48.567 191.843 C 47.535 191.447,41.858 191.590,41.100 192.032 M350.605 192.500 C 350.490 192.995,350.441 206.000,350.498 221.400 L 350.600 249.400 354.000 249.620 C 356.158 249.759,357.581 249.683,357.895 249.410 C 358.411 248.963,358.696 192.803,358.187 191.979 C 357.625 191.069,350.830 191.536,350.605 192.500 M300.892 240.268 C 299.765 240.721,299.200 242.755,299.200 246.354 L 299.200 249.949 283.700 250.183 C 275.175 250.312,259.830 250.506,249.600 250.615 C 239.370 250.723,230.775 250.894,230.500 250.994 C 229.371 251.403,229.847 259.562,231.026 260.010 C 232.405 260.534,297.182 260.539,298.561 260.015 C 299.557 259.636,299.576 259.547,299.687 254.915 L 299.800 250.200 308.968 250.092 C 319.820 249.965,319.200 250.237,319.200 245.600 C 319.200 241.152,319.001 240.949,314.811 241.137 C 312.802 241.228,311.010 241.056,309.601 240.637 C 307.590 240.040,302.043 239.805,300.892 240.268 M220.300 241.476 C 219.467 241.693,219.470 241.676,219.592 246.000 C 219.648 248.007,219.874 249.520,220.144 249.694 C 220.971 250.226,228.808 250.054,228.980 249.500 C 229.516 247.778,229.483 242.340,228.934 241.791 C 228.360 241.217,222.158 240.990,220.300 241.476 M341.100 251.632 C 340.439 252.017,340.400 255.023,340.400 305.820 L 340.400 359.600 341.500 359.642 C 342.105 359.665,343.410 359.722,344.400 359.769 C 345.390 359.816,346.875 359.774,347.700 359.676 L 349.200 359.498 349.200 305.972 L 349.200 252.445 348.311 251.823 C 347.284 251.104,342.236 250.970,341.100 251.632 M20.786 292.186 C 20.276 292.695,20.213 299.748,20.303 346.386 L 20.406 400.000 24.803 400.000 L 29.200 400.000 29.200 346.280 C 29.200 305.031,29.089 292.449,28.720 292.080 C 27.993 291.353,21.533 291.439,20.786 292.186 M350.625 362.973 C 350.267 365.362,350.446 378.024,350.849 378.842 C 351.318 379.792,357.317 379.809,358.072 378.863 C 358.487 378.342,358.557 376.397,358.400 369.800 L 358.200 361.400 354.548 361.286 L 350.895 361.171 350.625 362.973 M371.133 381.932 C 370.717 382.453,370.625 384.515,370.715 391.300 L 370.830 400.000 374.781 400.000 L 378.732 400.000 378.876 391.100 C 378.955 386.205,378.861 381.978,378.667 381.708 C 378.092 380.904,371.804 381.091,371.133 381.932 " stroke="none" fill="#2c1f0d" fill-rule="evenodd"></path><path id="path1" d="M250.659 21.874 C 250.517 22.017,250.400 35.043,250.400 50.822 C 250.400 77.556,250.352 79.569,249.700 80.358 C 248.764 81.490,226.387 81.985,175.739 81.994 L 140.079 82.000 140.143 85.570 C 140.178 87.533,140.355 89.288,140.536 89.470 C 140.718 89.651,149.490 89.852,160.030 89.915 L 179.195 90.029 179.797 91.195 C 180.865 93.260,180.626 98.848,179.422 99.980 L 178.444 100.899 164.848 100.827 C 148.949 100.742,150.400 100.207,150.400 106.151 C 150.400 111.067,150.246 111.200,144.561 111.200 L 140.500 111.200 140.250 112.450 C 140.112 113.137,140.000 115.171,140.000 116.970 C 140.000 121.082,139.882 121.200,135.746 121.200 C 130.508 121.200,130.503 121.205,130.338 125.915 C 130.141 131.565,130.843 131.200,120.175 131.200 C 109.792 131.200,110.634 130.765,110.615 136.135 C 110.595 141.362,110.340 141.600,104.743 141.600 C 100.314 141.600,100.572 141.410,100.262 144.900 L 100.058 147.200 102.449 147.200 C 103.764 147.200,105.343 146.940,105.957 146.622 C 107.319 145.918,109.239 145.671,117.000 145.202 C 120.351 144.999,123.715 144.579,124.619 144.249 C 125.640 143.878,127.709 143.660,130.219 143.660 C 135.168 143.661,144.571 142.869,145.962 142.334 C 146.533 142.114,150.554 141.675,154.898 141.358 C 159.242 141.041,163.259 140.606,163.824 140.391 C 164.389 140.176,165.524 140.000,166.346 140.000 C 168.567 140.000,168.800 139.542,168.800 135.182 C 168.800 129.295,166.832 129.822,189.318 129.688 C 205.375 129.593,208.418 129.667,209.948 130.188 C 210.991 130.544,213.133 130.800,215.061 130.800 C 218.313 130.800,218.391 130.823,218.975 131.953 C 219.365 132.706,219.957 133.162,220.686 133.268 C 222.196 133.489,233.854 132.525,235.600 132.034 C 237.356 131.541,239.378 131.291,247.400 130.573 C 259.598 129.481,259.211 129.661,258.906 125.216 C 258.701 122.222,258.740 122.023,259.738 121.025 L 260.786 119.978 279.960 120.089 C 290.506 120.150,299.276 120.343,299.450 120.517 C 299.625 120.691,299.864 121.681,299.983 122.717 L 300.200 124.600 304.287 124.517 C 307.289 124.456,308.881 124.225,310.287 123.646 C 311.555 123.123,313.615 122.776,316.400 122.614 C 318.710 122.480,321.410 122.252,322.400 122.107 L 324.200 121.844 322.262 121.550 C 319.137 121.075,318.844 120.588,318.713 115.650 L 318.600 111.400 314.466 111.200 C 309.317 110.951,309.200 110.835,309.200 106.013 C 309.200 101.047,308.964 100.800,304.206 100.800 C 299.296 100.800,299.200 100.704,299.200 95.814 C 299.200 91.162,300.742 91.600,284.349 91.600 L 270.764 91.600 269.782 90.618 C 268.879 89.716,268.800 89.334,268.800 85.898 C 268.800 81.205,268.795 81.200,264.139 81.200 C 262.103 81.200,259.979 80.991,259.419 80.736 L 258.400 80.272 258.394 51.436 C 258.391 35.576,258.254 22.390,258.091 22.133 C 257.774 21.636,251.129 21.405,250.659 21.874 M93.140 31.897 L 90.079 32.032 90.143 35.586 C 90.220 39.874,90.047 39.678,93.926 39.878 C 97.851 40.080,97.993 39.932,98.138 35.470 C 98.248 32.105,97.812 31.156,96.400 31.686 C 96.290 31.727,94.823 31.822,93.140 31.897 M100.594 42.365 C 100.365 42.593,100.284 44.146,100.400 46.078 L 100.600 49.400 104.000 49.657 C 108.408 49.991,108.458 49.944,108.315 45.639 L 108.200 42.200 104.594 42.086 C 102.605 42.023,100.811 42.148,100.594 42.365 M119.742 51.908 C 109.784 52.035,110.334 51.760,110.720 56.417 L 111.000 59.800 119.649 59.908 L 128.299 60.015 128.491 56.508 C 128.772 51.372,129.554 51.783,119.742 51.908 M131.278 62.262 C 130.395 62.981,130.372 63.196,130.351 70.751 C 130.326 79.910,130.247 79.723,134.203 79.838 C 138.103 79.953,138.548 79.459,138.614 74.951 C 138.643 72.998,138.797 69.510,138.957 67.200 C 139.143 64.520,139.101 62.784,138.841 62.404 C 138.171 61.423,132.438 61.316,131.278 62.262 M309.740 121.150 C 311.233 122.390,307.881 124.032,303.658 124.129 C 300.284 124.207,299.874 123.836,300.761 121.502 C 301.226 120.279,308.354 120.000,309.740 121.150 M294.300 138.282 C 294.795 138.378,295.605 138.378,296.100 138.282 C 296.595 138.187,296.190 138.109,295.200 138.109 C 294.210 138.109,293.805 138.187,294.300 138.282 M300.356 138.364 C 300.662 138.558,301.046 139.410,301.210 140.258 L 301.508 141.800 301.554 140.380 C 301.599 138.982,301.044 137.994,300.220 138.006 C 299.989 138.009,300.050 138.171,300.356 138.364 M291.982 139.234 C 291.736 139.693,291.640 140.173,291.768 140.301 C 291.895 140.429,292.000 140.336,292.000 140.095 C 292.000 139.854,292.283 139.374,292.629 139.029 C 292.974 138.683,293.071 138.400,292.843 138.400 C 292.615 138.400,292.227 138.775,291.982 139.234 M277.691 140.286 C 278.291 140.377,279.146 140.914,279.591 141.480 C 280.160 142.203,280.400 142.321,280.400 141.877 C 280.400 141.007,278.834 139.987,277.611 140.060 C 276.617 140.119,276.618 140.123,277.691 140.286 M272.909 140.740 C 270.697 141.386,270.442 142.019,270.685 146.270 C 270.808 148.432,270.998 150.290,271.108 150.400 C 271.217 150.510,271.210 148.763,271.092 146.517 C 270.843 141.775,270.864 141.738,274.311 140.983 C 276.157 140.579,276.329 140.482,275.200 140.481 C 274.430 140.480,273.399 140.597,272.909 140.740 M291.731 144.200 C 291.733 145.740,291.805 146.321,291.892 145.491 C 291.979 144.661,291.977 143.401,291.889 142.691 C 291.800 141.981,291.729 142.660,291.731 144.200 M301.720 144.800 C 301.720 146.010,301.795 146.505,301.887 145.900 C 301.978 145.295,301.978 144.305,301.887 143.700 C 301.795 143.095,301.720 143.590,301.720 144.800 M280.520 145.200 C 280.520 146.410,280.595 146.905,280.687 146.300 C 280.778 145.695,280.778 144.705,280.687 144.100 C 280.595 143.495,280.520 143.990,280.520 145.200 M301.510 147.658 C 301.299 148.207,299.221 148.799,295.600 149.341 C 294.764 149.466,294.804 149.500,295.845 149.546 C 298.971 149.682,302.267 148.602,301.918 147.555 C 301.792 147.177,301.684 147.204,301.510 147.658 M292.128 148.597 C 292.179 149.448,292.431 149.833,293.000 149.933 C 293.730 150.060,293.742 150.025,293.134 149.536 C 292.767 149.241,292.375 148.640,292.262 148.200 C 292.142 147.734,292.086 147.899,292.128 148.597 M280.600 149.611 C 280.287 150.696,279.938 151.055,279.000 151.253 L 277.800 151.505 279.051 151.553 C 280.568 151.610,281.302 150.827,281.129 149.335 C 281.001 148.233,280.996 148.236,280.600 149.611 M304.965 148.777 C 303.330 149.168,302.800 149.525,302.800 150.236 C 302.800 150.693,303.056 150.635,303.949 149.975 C 304.581 149.507,306.066 148.984,307.249 148.812 C 309.153 148.536,309.217 148.499,307.800 148.491 C 306.920 148.486,305.644 148.615,304.965 148.777 M312.624 152.573 C 312.879 154.841,313.208 156.890,313.355 157.127 C 313.502 157.365,312.949 158.014,312.117 158.579 C 311.198 159.203,310.875 159.600,311.285 159.600 C 312.953 159.600,314.192 157.820,313.690 156.144 C 313.433 155.285,313.101 153.276,312.953 151.679 C 312.804 150.081,312.565 148.702,312.421 148.613 C 312.277 148.524,312.368 150.306,312.624 152.573 M290.275 150.686 C 290.757 150.775,291.233 151.111,291.335 151.432 C 291.451 151.802,291.496 151.757,291.456 151.308 C 291.415 150.849,291.043 150.586,290.397 150.561 C 289.576 150.530,289.554 150.551,290.275 150.686 M284.349 151.382 C 281.850 152.071,281.593 152.275,281.646 153.524 C 281.682 154.353,281.737 154.417,281.885 153.800 C 282.180 152.575,282.464 152.410,285.642 151.622 C 287.407 151.184,288.116 150.885,287.400 150.880 C 286.740 150.875,285.367 151.101,284.349 151.382 M271.558 151.720 C 271.735 151.895,273.121 151.984,274.640 151.916 L 277.400 151.792 274.318 151.596 C 272.623 151.488,271.381 151.544,271.558 151.720 M302.826 152.000 C 302.773 153.283,304.011 159.371,304.405 159.765 C 304.694 160.054,304.706 159.816,304.444 158.991 C 304.236 158.336,303.962 156.782,303.834 155.537 C 303.610 153.350,302.876 150.778,302.826 152.000 M291.746 157.112 C 291.789 160.373,291.676 161.303,291.200 161.606 C 290.818 161.849,290.778 161.990,291.090 161.994 C 291.857 162.003,292.882 159.686,292.556 158.680 C 292.399 158.196,292.141 156.720,291.982 155.400 C 291.738 153.376,291.701 153.644,291.746 157.112 M159.400 154.017 C 157.990 154.219,158.373 154.253,160.700 154.131 C 162.515 154.036,164.012 154.013,164.027 154.079 C 164.042 154.146,164.366 156.333,164.748 158.940 C 165.565 164.529,165.883 164.123,160.333 164.562 C 156.379 164.875,156.730 165.180,155.992 160.800 C 155.011 154.972,155.008 155.248,156.048 154.832 C 156.572 154.622,156.790 154.439,156.533 154.425 C 154.590 154.320,154.433 155.399,155.555 161.141 C 156.369 165.302,156.642 165.646,158.741 165.158 C 159.543 164.972,160.938 164.815,161.840 164.810 C 163.540 164.800,166.007 164.117,165.991 163.661 C 165.954 162.589,164.464 154.427,164.238 154.061 C 163.933 153.569,162.613 153.557,159.400 154.017 M282.049 155.633 C 281.966 157.377,282.875 161.366,283.499 162.000 C 284.022 162.531,284.042 162.508,283.681 161.800 C 283.456 161.360,283.008 159.560,282.685 157.800 C 282.362 156.040,282.076 155.065,282.049 155.633 M252.899 155.613 C 252.088 155.939,245.932 156.655,241.800 156.904 L 240.200 157.000 240.315 162.400 C 240.462 169.316,240.284 169.505,233.549 169.576 C 230.772 169.606,230.078 170.618,230.772 173.627 C 232.039 179.125,231.104 181.969,228.011 182.026 C 226.220 182.058,222.157 182.909,221.727 183.341 C 221.547 183.522,221.400 186.037,221.400 188.930 L 221.400 194.190 219.800 194.721 C 217.223 195.576,214.980 195.904,208.400 196.388 C 204.990 196.638,200.940 197.091,199.400 197.394 C 197.860 197.696,193.810 198.144,190.400 198.388 C 186.990 198.632,183.300 198.994,182.200 199.194 C 179.379 199.704,177.057 199.940,170.200 200.414 C 166.900 200.641,162.760 201.099,161.000 201.429 C 159.240 201.760,155.818 202.139,153.396 202.271 C 147.861 202.574,147.936 202.643,147.559 196.860 L 147.281 192.600 147.347 197.200 C 147.383 199.730,147.555 202.025,147.730 202.300 C 148.312 203.217,160.981 202.667,164.800 201.560 C 167.854 200.674,191.692 199.991,210.100 200.262 C 231.427 200.575,229.600 201.032,229.600 195.387 C 229.600 190.707,229.667 190.644,234.827 190.464 C 239.518 190.300,239.700 190.085,239.546 184.898 C 239.415 180.489,239.512 180.400,244.449 180.400 C 249.764 180.400,250.000 180.626,250.000 185.720 C 250.000 190.343,250.053 190.400,254.300 190.400 C 259.612 190.400,260.000 190.737,260.000 195.348 C 260.000 200.301,260.307 200.618,264.775 200.274 C 268.591 199.979,268.476 199.815,268.634 205.800 C 268.692 208.000,268.862 212.015,269.013 214.721 C 269.364 221.066,269.323 221.126,264.703 220.884 C 259.627 220.619,259.946 219.595,260.084 235.719 L 260.200 249.141 259.050 249.370 C 257.583 249.663,232.473 249.663,231.383 249.369 C 230.644 249.171,230.581 248.902,230.729 246.583 C 231.124 240.382,230.395 239.600,224.223 239.600 C 218.395 239.600,218.400 239.595,218.400 245.627 C 218.400 251.190,218.410 251.200,224.089 251.200 C 229.067 251.200,228.800 250.917,228.800 256.204 C 228.800 261.161,228.842 261.200,234.200 261.200 C 237.433 261.200,238.481 261.338,238.971 261.829 C 239.707 262.564,239.660 261.884,239.602 271.033 C 239.571 275.948,239.712 278.608,240.042 279.333 L 240.528 280.400 264.621 280.400 C 287.176 280.400,288.735 280.355,289.040 279.700 C 289.219 279.315,289.464 277.200,289.583 275.000 L 289.800 271.000 299.281 270.800 C 305.446 270.670,308.917 270.445,309.205 270.155 C 309.502 269.859,309.652 266.931,309.657 261.355 C 309.666 250.881,309.496 251.200,315.088 251.200 C 320.496 251.200,320.959 250.696,320.705 245.074 C 320.579 242.281,320.304 240.591,319.831 239.700 C 318.785 237.729,319.039 222.862,320.154 220.816 C 321.111 219.058,320.944 192.590,319.967 191.298 C 318.824 189.786,318.251 189.600,314.742 189.600 C 311.388 189.600,309.002 189.045,309.424 188.362 C 309.533 188.185,309.689 186.679,309.771 185.015 C 309.966 181.064,309.639 180.800,304.538 180.800 C 300.434 180.800,300.537 180.876,300.337 177.705 C 300.159 174.866,302.086 174.317,316.000 173.237 C 318.750 173.024,322.123 172.558,323.496 172.202 C 324.869 171.847,326.849 171.611,327.896 171.678 L 329.800 171.800 329.807 175.447 C 329.815 180.170,330.003 180.400,333.830 180.400 C 338.676 180.400,338.800 180.529,338.800 185.575 C 338.800 191.364,338.978 191.600,343.363 191.600 C 345.188 191.600,347.202 191.782,347.840 192.004 L 349.000 192.408 349.000 220.704 C 349.000 245.469,348.925 249.034,348.400 249.272 C 348.070 249.421,346.073 249.556,343.962 249.572 C 338.483 249.612,338.800 248.933,338.800 260.644 L 338.800 270.225 337.670 270.651 C 337.049 270.886,335.564 270.999,334.370 270.904 C 333.177 270.808,331.705 270.921,331.100 271.155 L 330.000 271.580 330.000 275.990 L 330.000 280.400 333.381 280.400 C 335.241 280.400,337.221 280.609,337.781 280.864 L 338.800 281.328 338.800 320.491 C 338.800 346.721,338.937 359.908,339.214 360.426 C 339.579 361.109,340.085 361.201,343.514 361.206 C 348.987 361.215,348.566 360.439,348.800 370.943 C 349.071 383.119,347.333 381.953,363.740 380.959 C 368.905 380.646,368.548 379.900,368.438 390.786 C 368.373 397.123,368.477 400.000,368.772 400.000 C 369.288 400.000,369.384 380.961,368.870 380.643 C 368.458 380.389,360.796 380.403,355.177 380.669 C 349.465 380.939,349.847 381.653,349.600 370.240 L 349.400 361.000 344.918 360.800 C 342.453 360.690,340.256 360.418,340.034 360.196 C 339.773 359.934,339.567 345.599,339.444 319.196 C 339.340 296.868,339.227 278.150,339.192 277.600 C 339.072 275.686,339.621 252.194,339.807 251.344 C 339.980 250.547,340.285 250.478,344.296 250.337 C 346.663 250.253,348.825 250.042,349.100 249.869 C 349.492 249.621,349.600 243.327,349.600 220.600 C 349.600 197.872,349.493 191.580,349.100 191.333 C 348.825 191.161,346.750 190.950,344.490 190.864 C 339.119 190.661,339.346 191.326,339.063 174.934 C 339.028 172.918,338.895 171.163,338.767 171.034 C 338.359 170.625,322.332 171.551,319.000 172.176 C 317.240 172.506,312.686 173.051,308.880 173.388 C 299.973 174.176,298.956 174.643,299.153 177.854 C 299.310 180.408,299.354 180.400,284.600 180.400 C 268.130 180.400,269.125 180.956,268.470 171.383 C 268.029 164.929,268.378 165.407,264.659 166.175 C 257.279 167.700,256.406 167.150,256.008 160.734 C 255.649 154.938,255.439 154.592,252.899 155.613 M141.600 156.293 C 143.234 156.593,143.472 157.049,143.752 160.396 C 143.898 162.152,144.126 164.129,144.258 164.789 C 144.459 165.794,144.343 166.051,143.549 166.369 C 143.027 166.578,142.870 166.758,143.200 166.769 C 144.751 166.818,144.877 166.307,144.387 161.959 C 143.769 156.480,143.561 155.986,141.909 156.054 C 140.811 156.100,140.761 156.139,141.600 156.293 M136.905 156.687 C 137.514 156.779,138.414 156.777,138.905 156.682 C 139.397 156.587,138.900 156.511,137.800 156.514 C 136.700 156.517,136.297 156.595,136.905 156.687 M134.267 157.067 C 132.976 158.357,135.143 168.031,136.710 167.975 C 138.450 167.913,142.576 166.878,141.200 166.849 C 140.430 166.832,139.080 166.988,138.200 167.195 C 135.668 167.789,135.294 167.007,134.538 159.538 C 134.338 157.558,134.402 157.252,135.055 157.084 C 135.602 156.944,135.632 156.880,135.167 156.846 C 134.818 156.821,134.413 156.920,134.267 157.067 M307.900 159.882 C 308.395 159.978,309.205 159.978,309.700 159.882 C 310.195 159.787,309.790 159.709,308.800 159.709 C 307.810 159.709,307.405 159.787,307.900 159.882 M111.151 160.582 C 111.044 160.690,108.620 160.955,105.766 161.173 C 102.911 161.390,99.951 161.823,99.188 162.134 C 98.424 162.446,96.270 162.823,94.400 162.972 C 90.047 163.318,89.466 163.491,89.821 164.336 C 90.268 165.398,89.998 180.120,89.522 180.694 C 89.241 181.033,87.920 181.200,85.525 181.200 C 79.825 181.200,80.400 179.004,80.400 200.790 C 80.400 214.377,80.525 219.630,80.855 219.834 C 81.105 219.989,82.977 220.142,85.015 220.176 C 90.506 220.266,89.975 218.137,90.096 240.546 L 90.200 259.800 94.584 259.914 C 100.793 260.076,100.400 259.396,100.400 269.986 C 100.400 280.505,100.295 280.236,104.246 279.869 C 110.603 279.278,110.897 279.771,110.760 290.810 C 110.703 295.339,110.790 299.260,110.952 299.523 C 111.166 299.868,113.641 300.002,119.924 300.006 C 131.268 300.014,130.400 299.074,130.400 311.364 C 130.400 322.221,131.520 321.153,119.977 321.292 L 111.000 321.400 110.778 325.748 C 110.480 331.584,111.269 331.200,99.573 331.200 C 88.271 331.200,89.080 331.609,88.864 325.790 L 88.712 321.682 87.506 321.441 C 86.843 321.309,84.905 321.200,83.199 321.200 C 79.035 321.200,79.225 321.656,79.183 311.595 C 79.137 300.482,80.207 301.600,69.615 301.600 L 60.858 301.600 60.029 300.546 C 59.335 299.664,59.200 298.927,59.200 296.026 C 59.200 293.864,59.019 292.379,58.720 292.080 C 57.990 291.350,50.936 291.429,50.520 292.171 C 50.344 292.486,50.290 307.831,50.400 326.271 L 50.600 359.800 55.082 360.000 C 60.658 360.249,60.526 360.120,60.656 365.442 C 60.780 370.565,60.428 370.178,64.980 370.190 C 70.110 370.204,70.504 370.561,70.348 375.067 C 70.189 379.677,70.547 380.035,75.003 379.721 C 78.191 379.496,78.364 379.528,79.361 380.525 L 80.400 381.564 80.400 390.782 L 80.400 400.000 105.000 400.000 L 129.600 400.000 129.600 391.174 C 129.600 379.638,130.666 380.801,120.086 380.794 C 109.357 380.786,109.597 380.919,109.709 375.044 C 109.785 371.091,109.711 371.031,104.600 370.864 C 99.169 370.687,99.533 371.447,99.678 360.600 C 99.824 349.739,99.536 350.301,104.857 350.482 C 109.644 350.645,109.995 350.312,109.752 345.829 C 109.496 341.090,108.298 341.453,125.361 341.109 C 133.302 340.949,143.795 340.715,148.678 340.588 C 156.296 340.390,157.730 340.447,158.778 340.989 L 160.000 341.621 160.000 359.991 C 160.000 373.081,160.133 378.655,160.464 379.381 L 160.928 380.400 229.636 380.400 C 291.563 380.400,298.405 380.338,298.971 379.771 C 299.529 379.214,299.600 376.454,299.600 355.433 C 299.600 327.671,299.049 330.400,304.655 330.400 C 309.592 330.400,309.738 330.265,309.772 325.667 C 309.809 320.876,310.011 320.665,314.469 320.763 C 319.507 320.873,319.231 321.434,319.323 310.903 C 319.417 300.056,319.140 300.601,324.557 300.597 C 329.920 300.592,329.600 301.215,329.600 290.784 C 329.600 279.853,330.030 280.797,325.057 280.813 C 319.644 280.830,319.600 280.868,319.600 285.618 C 319.600 290.776,319.213 291.187,314.633 290.901 C 310.333 290.633,310.000 291.004,310.000 296.060 C 310.000 300.702,309.892 300.800,304.786 300.800 C 299.723 300.800,300.000 300.221,300.000 310.800 C 300.000 315.862,299.834 319.563,299.586 320.026 C 299.122 320.894,221.358 321.267,220.000 320.408 C 219.499 320.092,219.392 318.574,219.349 311.200 C 219.282 299.497,221.181 300.800,204.187 300.800 C 188.091 300.800,189.346 301.207,189.527 296.042 C 189.712 290.764,190.171 291.012,180.077 290.941 C 168.849 290.862,169.054 290.970,169.377 285.282 C 169.616 281.075,169.339 280.802,164.838 280.794 C 160.006 280.785,159.595 280.343,159.662 275.217 C 159.716 271.057,159.687 271.031,154.681 270.862 C 149.485 270.686,149.600 270.800,149.600 265.831 C 149.600 260.718,149.682 260.800,144.569 260.800 C 139.603 260.800,139.733 260.932,139.528 255.656 C 139.328 250.471,139.256 250.400,134.204 250.400 C 129.623 250.400,129.600 250.377,129.600 245.782 C 129.600 240.502,130.061 240.731,119.612 240.832 C 112.148 240.905,111.063 240.835,110.472 240.243 C 109.295 239.067,109.246 192.958,110.420 191.466 L 111.258 190.400 120.015 190.400 C 130.341 190.400,129.811 190.672,129.513 185.520 C 129.305 181.925,129.156 182.143,132.120 181.679 C 134.980 181.230,135.196 181.460,135.217 184.980 C 135.241 188.723,135.759 191.234,136.641 191.880 C 137.476 192.490,147.196 192.452,147.199 191.839 C 147.199 191.631,145.262 191.581,142.625 191.723 C 136.512 192.050,136.538 192.072,135.860 186.094 C 135.233 180.576,135.250 180.596,131.742 181.183 C 125.935 182.153,126.151 182.151,125.246 181.246 C 124.663 180.663,124.400 179.896,124.400 178.777 C 124.400 173.299,123.150 170.425,121.001 170.964 C 120.492 171.092,118.673 171.217,116.958 171.243 C 112.810 171.305,112.612 171.057,112.242 165.332 C 111.987 161.383,111.681 160.052,111.151 160.582 M286.905 162.287 C 287.514 162.379,288.414 162.377,288.905 162.282 C 289.397 162.187,288.900 162.111,287.800 162.114 C 286.700 162.117,286.297 162.195,286.905 162.287 M171.400 164.403 C 169.046 164.673,169.064 164.678,172.311 164.670 C 175.997 164.661,176.273 164.801,176.507 166.800 L 176.672 168.200 176.730 166.800 C 176.831 164.361,175.802 163.899,171.400 164.403 M154.000 166.964 C 155.315 167.436,155.414 167.598,155.635 169.633 L 155.870 171.800 155.935 169.874 C 156.023 167.273,155.499 166.392,153.886 166.430 L 152.600 166.461 154.000 166.964 M166.928 168.800 C 166.928 170.230,167.001 170.815,167.089 170.100 C 167.178 169.385,167.178 168.215,167.089 167.500 C 167.001 166.785,166.928 167.370,166.928 168.800 M148.900 167.087 C 149.505 167.178,150.495 167.178,151.100 167.087 C 151.705 166.995,151.210 166.920,150.000 166.920 C 148.790 166.920,148.295 166.995,148.900 167.087 M145.823 167.563 C 145.699 167.763,145.753 168.343,145.941 168.852 C 146.265 169.727,146.293 169.708,146.472 168.489 C 146.652 167.266,146.309 166.777,145.823 167.563 M176.787 172.000 L 176.600 174.600 175.200 174.847 L 173.800 175.095 175.313 175.147 C 177.126 175.210,177.289 174.903,177.108 171.755 L 176.973 169.400 176.787 172.000 M146.134 172.800 C 146.134 174.450,146.205 175.125,146.291 174.300 C 146.378 173.475,146.378 172.125,146.291 171.300 C 146.205 170.475,146.134 171.150,146.134 172.800 M156.070 174.857 C 155.994 176.880,155.640 177.198,153.467 177.202 C 152.770 177.203,151.513 177.395,150.674 177.628 C 148.799 178.149,146.800 177.774,146.800 176.902 C 146.800 176.552,146.694 176.373,146.563 176.503 C 146.433 176.633,146.446 177.113,146.590 177.570 C 146.910 178.575,148.036 178.625,152.542 177.831 C 156.299 177.168,156.496 177.008,156.296 174.754 L 156.140 173.000 156.070 174.857 M167.266 174.000 C 167.166 175.854,167.684 176.171,170.062 175.715 L 172.200 175.305 169.927 175.253 C 167.769 175.203,167.645 175.144,167.487 174.100 C 167.327 173.050,167.317 173.045,167.266 174.000 M185.190 175.153 L 187.380 175.400 187.871 178.348 C 188.472 181.953,189.008 182.710,188.616 179.400 C 188.152 175.491,187.781 175.008,185.197 174.953 L 183.000 174.906 185.190 175.153 M178.483 175.700 C 178.195 176.048,178.238 177.237,178.626 179.600 L 179.184 183.000 178.971 179.495 C 178.765 176.116,178.791 175.977,179.679 175.620 C 180.569 175.263,180.571 175.250,179.749 175.225 C 179.281 175.211,178.711 175.425,178.483 175.700 M165.869 177.393 C 166.558 177.876,166.767 178.571,166.994 181.127 C 167.251 184.032,167.990 186.621,167.986 184.600 C 167.982 182.684,166.825 177.462,166.336 177.152 C 165.401 176.559,164.985 176.774,165.869 177.393 M161.300 177.487 C 161.905 177.578,162.895 177.578,163.500 177.487 C 164.105 177.395,163.610 177.320,162.400 177.320 C 161.190 177.320,160.695 177.395,161.300 177.487 M157.640 177.967 C 157.070 178.327,157.085 178.616,158.001 185.000 L 158.287 187.000 158.334 185.000 C 158.360 183.900,158.227 182.339,158.040 181.532 C 157.603 179.654,157.903 178.091,158.743 177.868 C 159.255 177.731,159.268 177.684,158.800 177.653 C 158.470 177.630,157.948 177.772,157.640 177.967 M188.800 183.357 C 188.800 184.998,188.633 185.075,183.912 185.610 C 179.849 186.070,180.021 186.122,179.595 184.320 C 179.323 183.172,179.277 183.133,179.241 184.024 C 179.148 186.339,184.920 187.062,188.443 185.177 C 189.122 184.813,189.616 182.000,189.000 182.000 C 188.890 182.000,188.800 182.611,188.800 183.357 M168.032 186.051 C 167.995 186.804,166.565 187.434,164.000 187.827 C 161.607 188.193,160.180 188.738,161.518 188.775 C 164.499 188.857,168.731 187.063,168.269 185.913 C 168.132 185.571,168.053 185.616,168.032 186.051 M158.425 187.651 C 158.393 188.474,159.410 189.341,160.087 189.069 C 160.404 188.942,160.328 188.851,159.887 188.832 C 159.495 188.814,159.011 188.395,158.812 187.900 C 158.568 187.291,158.443 187.210,158.425 187.651 M304.200 190.082 C 307.940 190.322,312.570 190.537,314.489 190.559 C 320.119 190.625,319.758 189.547,319.750 206.247 L 319.744 220.116 318.828 220.858 C 318.067 221.474,317.207 221.600,313.770 221.600 C 308.523 221.600,308.755 221.208,308.819 229.965 C 308.852 234.439,308.710 237.020,308.402 237.597 C 308.145 238.076,307.995 238.516,308.068 238.575 C 308.790 239.155,311.559 239.600,314.444 239.600 C 318.245 239.600,319.562 240.255,319.628 242.175 C 319.931 251.017,320.407 250.602,309.529 250.974 C 304.838 251.135,300.911 251.356,300.802 251.465 C 300.692 251.574,300.512 253.637,300.401 256.047 C 300.250 259.346,300.051 260.524,299.600 260.809 C 298.911 261.244,247.889 261.348,237.454 260.937 C 229.172 260.610,229.421 260.757,229.334 256.132 C 229.297 254.190,229.252 252.214,229.234 251.743 C 229.202 250.927,228.977 250.879,224.565 250.739 C 218.830 250.557,218.800 250.530,218.800 245.524 C 218.800 240.620,219.047 240.400,224.551 240.400 C 229.753 240.400,229.734 240.381,230.000 245.759 L 230.200 249.800 248.600 249.772 C 258.720 249.757,267.843 249.612,268.874 249.451 L 270.748 249.159 270.870 234.679 C 271.072 210.835,271.118 212.328,270.153 211.103 C 269.371 210.109,269.284 209.344,269.015 201.059 C 268.705 191.526,268.820 190.690,270.526 190.003 C 271.767 189.503,296.083 189.560,304.200 190.082 " stroke="none" fill="#ecbd67" fill-rule="evenodd"></path><path id="path2" d="M300.761 121.502 C 299.874 123.836,300.284 124.207,303.658 124.129 C 307.881 124.032,311.233 122.390,309.740 121.150 C 308.354 120.000,301.226 120.279,300.761 121.502 M295.600 138.272 C 291.842 138.658,291.611 139.069,292.004 144.648 C 292.360 149.714,292.369 149.727,294.943 149.409 C 301.319 148.620,301.768 148.353,301.664 145.428 C 301.400 138.038,301.118 137.705,295.600 138.272 M274.262 140.984 C 270.884 141.735,270.832 141.835,271.139 147.000 L 271.400 151.400 275.550 151.376 C 280.841 151.346,280.914 151.270,280.570 146.213 C 280.189 140.613,279.288 139.866,274.262 140.984 M307.245 148.804 C 304.977 149.143,302.946 150.339,303.079 151.256 C 303.393 153.425,304.122 157.607,304.358 158.600 L 304.644 159.800 307.622 159.672 C 310.762 159.536,313.963 158.111,313.352 157.122 C 313.199 156.875,312.878 154.857,312.637 152.637 L 312.200 148.600 310.800 148.541 C 310.030 148.508,308.430 148.627,307.245 148.804 M285.642 151.622 C 281.703 152.599,281.784 152.454,282.590 157.068 C 283.533 162.470,283.314 162.224,287.050 162.072 C 292.123 161.866,292.129 161.860,291.774 156.600 C 291.329 149.995,291.532 150.161,285.642 151.622 M158.783 154.382 C 154.714 154.800,154.907 154.355,155.992 160.800 C 156.730 165.180,156.379 164.875,160.333 164.562 C 165.883 164.123,165.565 164.529,164.748 158.940 C 164.366 156.333,164.042 154.155,164.027 154.100 C 163.988 153.955,161.792 154.073,158.783 154.382 M138.400 156.668 C 137.630 156.745,136.394 156.908,135.654 157.031 L 134.308 157.254 134.532 159.527 C 135.150 165.806,135.829 167.835,137.169 167.410 C 137.535 167.294,139.153 167.033,140.765 166.831 C 144.531 166.358,144.435 166.519,143.876 161.600 C 143.237 155.982,143.439 156.164,138.400 156.668 M170.732 164.777 C 169.044 164.900,167.519 165.145,167.343 165.322 C 166.999 165.667,167.076 170.662,167.469 173.555 L 167.707 175.309 171.819 175.100 C 177.244 174.823,176.958 175.129,176.682 169.886 C 176.388 164.323,176.433 164.362,170.732 164.777 M149.402 167.154 C 146.699 167.392,146.597 167.439,146.402 168.562 C 146.133 170.106,146.545 177.078,146.927 177.461 C 147.439 177.972,151.361 177.730,155.156 176.953 L 156.111 176.757 155.830 172.278 C 155.474 166.594,155.503 166.617,149.402 167.154 M323.400 172.207 C 322.300 172.521,319.060 172.969,316.200 173.202 C 301.894 174.367,300.158 174.860,300.337 177.705 C 300.537 180.876,300.434 180.800,304.538 180.800 C 309.639 180.800,309.966 181.064,309.771 185.015 C 309.689 186.679,309.533 188.185,309.424 188.362 C 309.002 189.045,311.388 189.600,314.742 189.600 C 318.251 189.600,318.824 189.786,319.967 191.298 C 320.944 192.590,321.111 219.058,320.154 220.816 C 319.039 222.862,318.785 237.729,319.831 239.700 C 320.304 240.591,320.579 242.281,320.705 245.074 C 320.959 250.696,320.496 251.200,315.088 251.200 C 309.496 251.200,309.666 250.881,309.657 261.355 C 309.652 266.931,309.502 269.859,309.205 270.155 C 308.917 270.445,305.446 270.670,299.281 270.800 L 289.800 271.000 289.583 275.000 C 289.464 277.200,289.219 279.315,289.040 279.700 C 288.735 280.355,287.176 280.400,264.621 280.400 L 240.528 280.400 240.042 279.333 C 239.712 278.608,239.571 275.948,239.602 271.033 C 239.660 261.884,239.707 262.564,238.971 261.829 C 238.481 261.338,237.433 261.200,234.200 261.200 C 228.842 261.200,228.800 261.161,228.800 256.204 C 228.800 250.910,229.077 251.200,224.019 251.200 C 218.410 251.200,218.400 251.190,218.400 245.558 C 218.400 239.605,218.405 239.600,224.223 239.600 C 230.395 239.600,231.124 240.382,230.729 246.583 C 230.581 248.902,230.644 249.171,231.383 249.369 C 232.473 249.663,257.583 249.663,259.050 249.370 L 260.200 249.141 260.084 235.719 C 259.946 219.595,259.627 220.619,264.703 220.884 C 269.323 221.126,269.364 221.066,269.013 214.721 C 268.862 212.015,268.692 208.000,268.634 205.800 C 268.476 199.815,268.591 199.979,264.775 200.274 C 260.307 200.618,260.000 200.301,260.000 195.348 C 260.000 190.737,259.612 190.400,254.300 190.400 C 250.053 190.400,250.000 190.343,250.000 185.720 C 250.000 180.626,249.764 180.400,244.449 180.400 C 239.512 180.400,239.415 180.489,239.546 184.898 C 239.700 190.085,239.518 190.300,234.827 190.464 C 229.667 190.644,229.600 190.707,229.600 195.387 C 229.600 201.032,231.427 200.575,210.100 200.262 C 191.631 199.990,167.750 200.675,164.856 201.559 C 162.883 202.162,154.262 202.881,150.817 202.730 C 147.247 202.574,147.300 202.666,147.240 196.543 C 147.192 191.708,147.400 191.860,141.318 192.236 C 135.818 192.576,135.260 191.913,135.217 184.980 C 135.196 181.460,134.980 181.230,132.120 181.679 C 129.156 182.143,129.305 181.925,129.513 185.520 C 129.811 190.672,130.341 190.400,120.015 190.400 L 111.258 190.400 110.420 191.466 C 109.246 192.958,109.295 239.067,110.472 240.243 C 111.063 240.835,112.148 240.905,119.612 240.832 C 130.061 240.731,129.600 240.502,129.600 245.782 C 129.600 250.377,129.623 250.400,134.204 250.400 C 139.256 250.400,139.328 250.471,139.528 255.656 C 139.733 260.932,139.603 260.800,144.569 260.800 C 149.682 260.800,149.600 260.718,149.600 265.831 C 149.600 270.800,149.485 270.686,154.681 270.862 C 159.687 271.031,159.716 271.057,159.662 275.217 C 159.595 280.343,160.006 280.785,164.838 280.794 C 169.339 280.802,169.616 281.075,169.377 285.282 C 169.054 290.970,168.849 290.862,180.077 290.941 C 190.171 291.012,189.712 290.764,189.527 296.042 C 189.346 301.207,188.091 300.800,204.187 300.800 C 221.181 300.800,219.282 299.497,219.349 311.200 C 219.392 318.574,219.499 320.092,220.000 320.408 C 221.358 321.267,299.122 320.894,299.586 320.026 C 299.834 319.563,300.000 315.862,300.000 310.800 C 300.000 300.221,299.723 300.800,304.786 300.800 C 309.892 300.800,310.000 300.702,310.000 296.060 C 310.000 291.004,310.333 290.633,314.633 290.901 C 319.213 291.187,319.600 290.776,319.600 285.618 C 319.600 280.868,319.644 280.830,325.057 280.813 C 330.030 280.797,329.600 279.853,329.600 290.784 C 329.600 301.215,329.920 300.592,324.557 300.597 C 319.140 300.601,319.417 300.056,319.323 310.903 C 319.231 321.434,319.507 320.873,314.469 320.763 C 310.011 320.665,309.809 320.876,309.772 325.667 C 309.738 330.275,309.600 330.400,304.586 330.400 C 299.072 330.400,299.600 327.741,299.600 355.503 C 299.600 376.460,299.529 379.214,298.971 379.771 C 298.405 380.338,291.563 380.400,229.636 380.400 L 160.928 380.400 160.464 379.381 C 160.133 378.655,160.000 373.081,160.000 359.991 L 160.000 341.621 158.778 340.989 C 157.730 340.447,156.296 340.390,148.678 340.588 C 143.795 340.715,133.302 340.949,125.361 341.109 C 108.298 341.453,109.496 341.090,109.752 345.829 C 109.995 350.312,109.644 350.645,104.857 350.482 C 99.536 350.301,99.824 349.739,99.678 360.600 C 99.533 371.447,99.169 370.687,104.600 370.864 C 109.711 371.031,109.785 371.091,109.709 375.044 C 109.597 380.919,109.357 380.786,120.086 380.794 C 130.666 380.801,129.600 379.638,129.600 391.174 L 129.600 400.000 248.972 400.000 L 368.344 400.000 368.477 391.100 C 368.644 379.934,368.978 380.667,363.866 380.961 C 347.235 381.915,349.072 383.136,348.800 370.943 C 348.566 360.439,348.987 361.215,343.514 361.206 C 340.085 361.201,339.579 361.109,339.214 360.426 C 338.937 359.908,338.800 346.721,338.800 320.491 L 338.800 281.328 337.781 280.864 C 337.221 280.609,335.241 280.400,333.381 280.400 L 330.000 280.400 330.000 275.990 L 330.000 271.580 331.100 271.155 C 331.705 270.921,333.177 270.808,334.370 270.904 C 335.564 270.999,337.049 270.886,337.670 270.651 L 338.800 270.225 338.800 260.574 C 338.800 248.914,338.468 249.613,344.031 249.572 C 346.104 249.556,348.070 249.421,348.400 249.272 C 348.925 249.034,349.000 245.469,349.000 220.704 L 349.000 192.408 347.840 192.004 C 347.202 191.782,345.188 191.600,343.363 191.600 C 338.978 191.600,338.800 191.364,338.800 185.575 C 338.800 180.529,338.676 180.400,333.830 180.400 C 330.003 180.400,329.815 180.170,329.807 175.447 L 329.800 171.800 327.600 171.718 C 326.390 171.673,324.500 171.893,323.400 172.207 M179.654 175.622 C 178.645 176.034,178.632 176.478,179.436 183.219 C 179.777 186.082,179.771 186.079,183.899 185.611 C 189.540 184.972,189.253 185.505,187.902 178.200 L 187.384 175.400 183.992 175.318 C 182.126 175.273,180.174 175.410,179.654 175.622 M161.514 177.579 C 157.435 177.921,157.583 177.610,158.299 184.328 C 158.799 189.029,158.805 189.034,162.457 188.207 C 164.076 187.840,165.760 187.465,166.200 187.373 C 167.895 187.021,168.213 186.548,167.716 185.122 C 167.462 184.395,167.130 182.540,166.979 181.000 C 166.684 178.013,166.292 177.164,165.251 177.260 C 164.893 177.294,163.211 177.437,161.514 177.579 " stroke="none" fill="#f3e5c6" fill-rule="evenodd"></path><path id="path3" d="M0.000 200.000 L 0.000 400.000 9.810 400.000 L 19.619 400.000 19.600 346.300 C 19.589 316.765,19.585 292.380,19.590 292.110 C 19.619 290.652,21.761 290.356,30.200 290.643 C 36.564 290.860,38.507 290.809,38.986 290.412 C 39.532 289.959,39.600 284.487,39.600 241.027 C 39.600 184.364,38.952 190.693,44.789 190.389 C 47.747 190.235,48.944 190.018,49.215 189.589 C 49.690 188.838,49.705 180.385,49.233 179.639 C 48.835 179.011,42.324 179.239,36.222 180.093 C 29.514 181.033,29.387 180.935,28.985 174.503 C 28.649 169.122,28.794 168.723,31.242 168.285 C 32.209 168.112,33.845 167.783,34.879 167.554 C 35.912 167.325,39.363 166.901,42.547 166.611 C 50.075 165.928,49.867 166.148,48.607 160.200 C 47.433 154.656,47.723 154.284,53.732 153.622 C 56.253 153.345,58.006 152.940,58.619 152.495 L 59.575 151.800 59.587 96.729 L 59.600 41.658 60.574 40.892 C 61.394 40.247,62.053 40.150,64.741 40.277 C 68.884 40.474,69.200 40.110,69.200 35.140 C 69.200 30.500,69.310 30.400,74.405 30.400 C 79.132 30.400,78.940 30.600,79.200 25.410 C 79.466 20.110,78.901 20.359,90.315 20.494 C 100.631 20.617,99.985 20.327,99.994 24.840 C 99.997 26.512,100.198 28.447,100.439 29.140 L 100.878 30.400 104.977 30.400 C 110.275 30.400,110.400 30.517,110.400 35.470 C 110.400 40.674,109.968 40.458,120.234 40.375 C 130.379 40.293,130.000 40.089,130.000 45.630 C 130.000 49.943,130.067 50.000,135.125 50.000 C 140.088 50.000,139.826 49.408,139.679 60.300 C 139.592 66.740,139.690 69.427,140.028 69.834 C 140.561 70.476,217.713 70.696,218.718 70.059 C 219.128 69.799,219.231 66.770,219.210 55.664 L 219.184 41.598 220.416 40.849 C 221.426 40.234,222.253 40.126,225.012 40.246 C 229.389 40.437,229.200 40.886,229.200 30.275 C 229.200 19.984,228.808 20.681,234.761 20.400 L 239.000 20.200 239.200 15.718 C 239.456 9.988,238.600 10.429,249.549 10.385 C 261.075 10.339,260.400 10.001,260.400 15.819 C 260.400 20.613,260.189 20.400,264.956 20.400 C 270.226 20.400,269.687 16.969,269.621 50.080 L 269.565 78.715 270.637 79.557 C 271.679 80.377,272.081 80.400,285.440 80.400 C 301.400 80.400,300.000 79.930,300.000 85.285 C 300.000 90.080,300.335 90.457,304.537 90.380 C 309.912 90.282,310.369 90.709,310.387 95.857 C 310.402 100.152,310.235 100.000,314.956 100.000 C 319.644 100.000,319.719 100.085,319.649 105.293 L 319.593 109.519 320.856 109.960 C 321.551 110.202,323.610 110.400,325.431 110.400 C 329.901 110.400,330.000 110.516,330.000 115.786 C 330.000 119.182,330.112 119.958,330.633 120.157 C 331.895 120.642,341.800 120.385,345.949 119.760 C 352.285 118.806,361.275 118.092,362.307 118.461 C 363.856 119.015,364.030 120.075,365.150 135.800 C 365.598 142.092,365.616 142.066,360.658 142.576 C 357.017 142.950,355.005 144.235,355.601 145.803 C 356.241 147.486,356.555 153.531,356.035 154.158 C 355.774 154.473,354.624 154.948,353.480 155.216 C 349.739 156.090,350.000 154.762,350.000 172.888 C 350.000 191.796,349.654 190.400,354.344 190.400 C 357.520 190.400,357.946 190.491,358.746 191.342 L 359.631 192.285 359.608 220.619 C 359.581 253.746,360.145 250.400,354.587 250.400 C 351.969 250.400,350.767 250.558,350.448 250.943 C 350.117 251.340,350.024 266.003,350.099 305.843 L 350.200 360.200 354.282 360.400 C 359.753 360.668,359.377 359.929,359.521 370.719 C 359.588 375.714,359.787 379.945,359.963 380.122 C 360.140 380.299,364.315 380.449,369.242 380.456 C 380.760 380.472,379.600 379.307,379.600 390.862 L 379.600 400.000 389.800 400.000 L 400.000 400.000 400.000 200.000 L 400.000 0.000 200.000 0.000 L 0.000 0.000 0.000 200.000 " stroke="none" fill="#fb346b" fill-rule="evenodd"></path><path id="path4" d="M248.812 10.308 C 238.708 10.436,239.454 10.015,239.200 15.718 L 239.000 20.200 234.761 20.400 C 228.808 20.681,229.200 19.984,229.200 30.275 C 229.200 40.886,229.389 40.437,225.012 40.246 C 222.253 40.126,221.426 40.234,220.416 40.849 L 219.184 41.598 219.210 55.664 C 219.231 66.770,219.128 69.799,218.718 70.059 C 217.713 70.696,140.561 70.476,140.028 69.834 C 139.690 69.427,139.592 66.740,139.679 60.300 C 139.826 49.408,140.088 50.000,135.125 50.000 C 130.067 50.000,130.000 49.943,130.000 45.630 C 130.000 40.089,130.379 40.293,120.234 40.375 C 109.953 40.459,110.400 40.685,110.400 35.400 C 110.400 30.518,110.271 30.400,104.908 30.400 L 100.878 30.400 100.439 29.140 C 100.198 28.447,99.997 26.512,99.994 24.840 C 99.985 20.327,100.631 20.617,90.315 20.494 C 78.901 20.359,79.466 20.110,79.200 25.410 C 78.940 30.600,79.132 30.400,74.405 30.400 C 69.310 30.400,69.200 30.500,69.200 35.140 C 69.200 40.110,68.884 40.474,64.741 40.277 C 62.053 40.150,61.394 40.247,60.574 40.892 L 59.600 41.658 59.600 96.665 L 59.600 151.672 58.700 152.423 C 57.463 153.455,58.435 153.402,59.753 152.366 L 60.814 151.531 60.793 96.900 C 60.781 66.125,60.925 42.115,61.123 41.917 C 61.315 41.725,63.077 41.619,65.036 41.684 L 68.600 41.800 68.800 96.200 C 68.910 126.120,69.146 150.825,69.324 151.100 C 69.774 151.795,73.582 151.725,77.000 150.958 C 82.497 149.724,83.312 149.611,86.933 149.585 C 88.950 149.570,92.220 149.310,94.200 149.007 C 96.180 148.704,100.590 148.253,104.000 148.005 C 107.410 147.757,111.820 147.304,113.800 146.999 C 115.780 146.694,120.640 146.155,124.600 145.800 C 128.560 145.446,132.520 144.996,133.400 144.801 C 134.280 144.605,138.060 144.167,141.800 143.825 C 145.540 143.484,149.976 142.940,151.657 142.617 C 153.339 142.294,157.433 141.838,160.755 141.603 C 169.664 140.974,169.600 141.016,169.600 135.761 C 169.600 130.351,167.773 130.800,189.800 130.800 C 210.376 130.800,210.000 130.751,210.000 133.409 C 210.000 135.631,213.079 135.867,222.938 134.398 C 224.443 134.173,228.763 133.713,232.538 133.375 C 236.312 133.037,240.023 132.593,240.784 132.389 C 241.545 132.185,245.415 131.734,249.384 131.388 C 260.413 130.424,260.161 130.563,260.210 125.443 C 260.255 120.744,258.403 121.145,280.010 121.152 C 300.368 121.157,299.581 121.073,299.594 123.251 C 299.607 125.452,304.266 125.790,312.690 124.200 C 314.401 123.877,318.650 123.342,322.133 123.010 C 327.267 122.520,328.660 122.254,329.487 121.603 C 330.385 120.896,331.185 120.790,336.154 120.714 L 341.800 120.627 336.800 120.516 C 329.415 120.351,330.000 120.755,330.000 115.821 C 330.000 110.512,329.906 110.400,325.431 110.400 C 323.610 110.400,321.551 110.202,320.856 109.960 L 319.593 109.519 319.649 105.293 C 319.719 100.085,319.644 100.000,314.956 100.000 C 310.235 100.000,310.402 100.152,310.387 95.857 C 310.369 90.709,309.912 90.282,304.537 90.380 C 300.335 90.457,300.000 90.080,300.000 85.285 C 300.000 79.930,301.400 80.400,285.440 80.400 C 272.081 80.400,271.679 80.377,270.637 79.557 L 269.565 78.715 269.621 50.080 C 269.687 16.969,270.226 20.400,264.956 20.400 C 260.189 20.400,260.400 20.613,260.400 15.819 C 260.400 9.868,261.002 10.155,248.812 10.308 M258.641 11.666 C 259.130 12.457,259.298 17.741,258.869 18.843 L 258.463 19.885 249.786 20.177 C 243.890 20.376,240.975 20.335,240.690 20.050 C 240.202 19.562,239.958 15.369,240.274 12.900 L 240.491 11.200 249.422 11.200 C 255.786 11.200,258.436 11.334,258.641 11.666 M98.700 21.726 C 99.550 22.272,99.377 28.680,98.500 29.135 C 97.374 29.719,82.211 30.141,81.230 29.616 C 79.914 28.912,79.973 22.140,81.300 21.625 C 82.413 21.193,98.011 21.284,98.700 21.726 M238.753 21.771 C 239.653 22.327,239.346 39.094,238.426 39.586 C 237.423 40.123,232.177 40.123,231.174 39.586 C 229.871 38.889,229.989 22.136,231.300 21.620 C 232.305 21.224,238.056 21.340,238.753 21.771 M268.300 21.729 C 269.013 22.183,269.033 78.407,268.320 79.120 C 267.526 79.914,261.347 79.761,261.032 78.940 C 260.744 78.188,260.710 22.069,260.998 21.603 C 261.244 21.205,267.651 21.316,268.300 21.729 M258.091 22.133 C 258.254 22.390,258.391 35.576,258.394 51.436 L 258.400 80.272 259.419 80.736 C 259.979 80.991,262.103 81.200,264.139 81.200 C 268.795 81.200,268.800 81.205,268.800 85.898 C 268.800 89.334,268.879 89.716,269.782 90.618 L 270.764 91.600 284.349 91.600 C 300.742 91.600,299.200 91.162,299.200 95.814 C 299.200 100.704,299.296 100.800,304.206 100.800 C 308.964 100.800,309.200 101.047,309.200 106.013 C 309.200 110.835,309.317 110.951,314.466 111.200 L 318.600 111.400 318.713 115.650 C 318.844 120.588,319.137 121.075,322.262 121.550 L 324.200 121.844 322.400 122.107 C 321.410 122.252,318.710 122.480,316.400 122.614 C 313.615 122.776,311.555 123.123,310.287 123.646 C 308.881 124.225,307.289 124.456,304.287 124.517 L 300.200 124.600 299.983 122.717 C 299.864 121.681,299.625 120.691,299.450 120.517 C 299.276 120.343,290.506 120.150,279.960 120.089 L 260.786 119.978 259.738 121.025 C 258.740 122.023,258.701 122.222,258.906 125.216 C 259.211 129.661,259.598 129.481,247.400 130.573 C 239.378 131.291,237.356 131.541,235.600 132.034 C 233.854 132.525,222.196 133.489,220.686 133.268 C 219.957 133.162,219.365 132.706,218.975 131.953 C 218.391 130.823,218.313 130.800,215.061 130.800 C 213.133 130.800,210.991 130.544,209.948 130.188 C 208.418 129.667,205.375 129.593,189.318 129.688 C 166.832 129.822,168.800 129.295,168.800 135.182 C 168.800 139.542,168.567 140.000,166.346 140.000 C 165.524 140.000,164.389 140.176,163.824 140.391 C 163.259 140.606,159.242 141.041,154.898 141.358 C 150.554 141.675,146.533 142.114,145.962 142.334 C 144.571 142.869,135.168 143.661,130.219 143.660 C 127.709 143.660,125.640 143.878,124.619 144.249 C 123.715 144.579,120.351 144.999,117.000 145.202 C 109.239 145.671,107.319 145.918,105.957 146.622 C 105.343 146.940,103.764 147.200,102.449 147.200 L 100.058 147.200 100.262 144.900 C 100.572 141.410,100.314 141.600,104.743 141.600 C 110.340 141.600,110.595 141.362,110.615 136.135 C 110.634 130.765,109.792 131.200,120.175 131.200 C 130.843 131.200,130.141 131.565,130.338 125.915 C 130.503 121.205,130.508 121.200,135.746 121.200 C 139.882 121.200,140.000 121.082,140.000 116.970 C 140.000 115.171,140.112 113.137,140.250 112.450 L 140.500 111.200 144.561 111.200 C 150.246 111.200,150.400 111.067,150.400 106.151 C 150.400 100.207,148.949 100.742,164.848 100.827 L 178.444 100.899 179.422 99.980 C 180.626 98.848,180.865 93.260,179.797 91.195 L 179.195 90.029 160.030 89.915 C 149.490 89.852,140.718 89.651,140.536 89.470 C 140.355 89.288,140.178 87.533,140.143 85.570 L 140.079 82.000 175.739 81.994 C 226.387 81.985,248.764 81.490,249.700 80.358 C 250.352 79.569,250.400 77.556,250.400 50.822 C 250.400 35.043,250.517 22.017,250.659 21.874 C 251.129 21.405,257.774 21.636,258.091 22.133 M78.720 31.680 C 79.019 31.979,79.200 33.458,79.200 35.600 C 79.200 37.742,79.019 39.221,78.720 39.520 C 78.072 40.168,71.528 40.168,70.880 39.520 C 70.058 38.698,70.241 32.132,71.100 31.632 C 72.100 31.050,78.128 31.088,78.720 31.680 M108.430 31.713 C 109.244 32.343,109.375 38.557,108.587 39.210 C 108.289 39.458,106.545 39.584,104.340 39.516 L 100.600 39.400 100.484 35.860 C 100.409 33.595,100.535 32.119,100.833 31.760 C 101.432 31.038,107.509 31.000,108.430 31.713 M97.425 31.832 C 98.188 32.037,98.241 32.310,98.138 35.470 C 97.993 39.932,97.851 40.080,93.926 39.878 C 90.047 39.678,90.220 39.874,90.143 35.586 L 90.079 32.032 93.140 31.897 C 94.823 31.822,96.290 31.727,96.400 31.686 C 96.510 31.645,96.971 31.711,97.425 31.832 M128.685 42.100 C 128.895 42.375,129.046 44.130,129.020 46.000 L 128.974 49.400 119.987 49.400 L 111.000 49.400 110.883 46.033 C 110.818 44.182,110.858 42.427,110.970 42.133 C 111.258 41.383,128.112 41.351,128.685 42.100 M228.946 42.300 C 229.517 44.301,229.677 59.438,229.132 59.891 C 228.284 60.594,221.675 60.646,220.984 59.955 C 220.234 59.204,220.083 43.064,220.818 42.178 C 221.589 41.249,228.676 41.355,228.946 42.300 M108.315 45.639 C 108.458 49.944,108.408 49.991,104.000 49.657 L 100.600 49.400 100.400 46.078 C 100.152 41.958,100.164 41.946,104.594 42.086 L 108.200 42.200 108.315 45.639 M138.515 51.555 C 138.942 51.982,138.968 59.165,138.544 59.589 C 137.932 60.203,131.710 60.053,131.067 59.410 C 130.023 58.366,130.117 52.683,131.196 51.604 C 132.080 50.720,137.643 50.683,138.515 51.555 M128.491 56.508 L 128.299 60.015 119.649 59.908 L 111.000 59.800 110.720 56.417 C 110.334 51.760,109.784 52.035,119.742 51.908 C 129.554 51.783,128.772 51.372,128.491 56.508 M138.841 62.404 C 139.101 62.784,139.143 64.520,138.957 67.200 C 138.797 69.510,138.643 72.998,138.614 74.951 C 138.548 79.459,138.103 79.953,134.203 79.838 C 130.247 79.723,130.326 79.910,130.351 70.751 C 130.372 63.196,130.395 62.981,131.278 62.262 C 132.438 61.316,138.171 61.423,138.841 62.404 M218.935 71.602 C 219.544 72.211,219.530 78.215,218.917 78.891 C 217.928 79.985,141.011 79.993,140.503 78.900 C 139.760 77.303,140.388 71.662,141.330 71.475 C 142.557 71.232,218.690 71.356,218.935 71.602 M98.300 81.452 C 99.155 81.681,99.200 81.887,99.200 85.593 C 99.200 91.195,99.615 91.664,104.477 91.566 C 109.161 91.471,109.425 91.707,109.254 95.819 C 109.159 98.080,109.289 99.076,109.773 99.815 L 110.418 100.800 119.400 100.800 L 128.382 100.800 129.041 101.807 C 129.790 102.949,129.393 119.183,128.598 119.946 C 127.930 120.586,90.964 120.717,90.323 120.080 C 89.606 119.368,89.332 82.605,90.037 81.755 C 90.518 81.176,96.457 80.958,98.300 81.452 M298.174 81.590 C 299.460 82.079,299.804 88.883,298.567 89.357 C 297.236 89.868,271.318 89.627,270.920 89.100 C 270.332 88.321,270.621 81.960,271.263 81.553 C 272.018 81.074,296.908 81.109,298.174 81.590 M308.698 92.100 C 308.916 92.375,309.109 94.084,309.126 95.898 C 309.164 99.794,309.295 99.702,304.000 99.518 L 300.600 99.400 300.481 96.405 C 300.284 91.475,300.178 91.600,304.559 91.600 C 307.075 91.600,308.432 91.764,308.698 92.100 M318.432 101.800 C 318.603 102.240,318.756 104.172,318.772 106.092 C 318.805 110.165,318.969 110.035,314.000 109.888 L 311.000 109.800 310.882 106.200 C 310.703 100.723,310.550 100.936,314.650 100.971 C 317.734 100.997,318.154 101.089,318.432 101.800 M328.858 112.100 C 329.112 116.022,329.084 117.574,328.738 118.700 L 328.338 120.000 324.808 120.000 C 320.619 120.000,320.419 119.757,320.692 115.000 C 320.923 110.968,320.661 111.200,324.987 111.200 C 328.657 111.200,328.802 111.234,328.858 112.100 M357.100 118.682 C 357.595 118.778,358.405 118.778,358.900 118.682 C 359.395 118.587,358.990 118.509,358.000 118.509 C 357.010 118.509,356.605 118.587,357.100 118.682 M351.900 119.082 C 352.395 119.178,353.205 119.178,353.700 119.082 C 354.195 118.987,353.790 118.909,352.800 118.909 C 351.810 118.909,351.405 118.987,351.900 119.082 M348.900 119.476 C 349.285 119.576,349.915 119.576,350.300 119.476 C 350.685 119.375,350.370 119.293,349.600 119.293 C 348.830 119.293,348.515 119.375,348.900 119.476 M343.505 120.283 C 344.002 120.379,344.722 120.375,345.105 120.275 C 345.487 120.175,345.080 120.096,344.200 120.101 C 343.320 120.105,343.007 120.187,343.505 120.283 M363.693 121.600 C 363.693 122.370,363.775 122.685,363.876 122.300 C 363.976 121.915,363.976 121.285,363.876 120.900 C 363.775 120.515,363.693 120.830,363.693 121.600 M364.109 124.800 C 364.109 125.790,364.187 126.195,364.282 125.700 C 364.378 125.205,364.378 124.395,364.282 123.900 C 364.187 123.405,364.109 123.810,364.109 124.800 M364.520 129.600 C 364.520 130.810,364.595 131.305,364.687 130.700 C 364.778 130.095,364.778 129.105,364.687 128.500 C 364.595 127.895,364.520 128.390,364.520 129.600 M364.909 136.000 C 364.909 136.990,364.987 137.395,365.082 136.900 C 365.178 136.405,365.178 135.595,365.082 135.100 C 364.987 134.605,364.909 135.010,364.909 136.000 M299.400 137.658 C 301.293 138.367,301.551 138.733,301.706 140.933 L 301.852 143.000 301.926 140.749 C 302.009 138.231,301.716 137.816,299.600 137.451 L 298.200 137.209 299.400 137.658 M292.878 137.885 C 291.708 138.109,291.183 139.484,291.261 142.126 L 291.322 144.200 291.561 141.720 C 291.858 138.642,292.147 138.351,295.279 137.996 C 297.693 137.722,297.715 137.709,295.800 137.709 C 294.700 137.709,293.385 137.788,292.878 137.885 M274.425 140.017 C 270.369 140.570,269.922 141.232,270.386 146.001 L 270.755 149.800 270.603 146.092 C 270.397 141.081,270.450 141.032,276.815 140.178 C 279.717 139.789,280.372 140.582,280.803 145.005 L 281.154 148.600 280.999 144.836 C 280.788 139.726,280.126 139.241,274.425 140.017 M361.700 142.276 C 362.085 142.376,362.715 142.376,363.100 142.276 C 363.485 142.175,363.170 142.093,362.400 142.093 C 361.630 142.093,361.315 142.175,361.700 142.276 M357.400 142.778 C 356.960 142.958,356.240 143.517,355.800 144.021 L 355.000 144.936 356.254 144.027 C 356.943 143.527,358.113 142.975,358.854 142.800 C 359.929 142.546,359.999 142.479,359.200 142.466 C 358.650 142.458,357.840 142.598,357.400 142.778 M302.067 145.910 C 301.987 148.919,301.885 148.983,296.307 149.553 C 292.171 149.976,292.123 149.959,291.893 148.000 C 291.732 146.637,291.726 146.644,291.664 148.261 L 291.600 149.921 289.100 150.183 C 287.725 150.327,285.636 150.631,284.457 150.859 C 282.230 151.291,281.808 151.141,281.485 149.800 C 281.303 149.041,281.290 149.044,281.246 149.851 C 281.183 151.017,280.475 151.511,278.595 151.703 L 277.000 151.866 278.876 151.933 C 281.176 152.015,281.087 151.868,281.603 156.429 C 282.184 161.555,282.317 161.941,283.747 162.647 L 285.000 163.265 283.939 162.333 C 282.822 161.350,282.082 158.416,281.891 154.212 C 281.785 151.888,282.418 151.523,287.879 150.764 C 291.517 150.258,291.484 150.235,291.787 153.504 C 291.925 154.987,292.212 156.968,292.426 157.906 C 292.928 160.110,292.125 161.868,290.504 162.113 L 289.400 162.280 290.500 162.340 C 292.278 162.437,293.346 161.059,293.045 159.054 C 291.598 149.397,291.153 150.431,296.978 149.901 C 302.175 149.429,302.046 149.386,302.424 151.707 L 302.700 153.400 302.750 151.514 C 302.812 149.190,303.272 148.890,307.511 148.411 L 310.600 148.062 306.600 148.131 L 302.600 148.200 302.367 145.800 L 302.134 143.400 302.067 145.910 M355.462 146.600 C 355.596 147.480,355.772 148.275,355.853 148.367 C 356.156 148.710,355.929 146.568,355.581 145.800 C 355.329 145.242,355.293 145.485,355.462 146.600 M311.647 148.201 C 312.590 148.714,312.723 149.079,312.985 151.885 C 313.255 154.768,313.900 157.453,313.975 156.000 C 314.168 152.228,312.544 147.564,311.056 147.616 C 310.805 147.625,311.071 147.888,311.647 148.201 M356.101 151.000 C 356.105 151.880,356.187 152.193,356.283 151.695 C 356.379 151.198,356.375 150.478,356.275 150.095 C 356.175 149.713,356.096 150.120,356.101 151.000 M270.825 150.851 C 270.780 152.010,271.824 152.449,274.266 152.297 L 276.600 152.151 274.087 152.076 C 271.891 152.010,271.529 151.886,271.212 151.100 C 270.968 150.491,270.843 150.410,270.825 150.851 M162.757 152.976 C 162.660 153.073,161.097 153.338,159.284 153.566 C 153.902 154.241,153.575 154.987,155.271 162.718 C 155.886 165.525,155.469 165.918,151.373 166.392 L 148.200 166.760 151.685 166.579 C 155.836 166.363,155.959 166.478,156.076 170.674 C 156.150 173.364,156.154 173.352,156.376 169.827 C 156.631 165.754,156.440 165.929,161.400 165.236 C 163.710 164.914,163.732 164.900,162.000 164.860 C 161.010 164.838,159.543 164.972,158.741 165.158 C 156.642 165.646,156.369 165.302,155.555 161.141 C 154.437 155.419,154.494 154.909,156.300 154.450 C 159.070 153.747,163.886 153.492,164.219 154.031 C 164.459 154.419,165.954 162.546,165.991 163.667 C 165.996 163.813,165.505 164.114,164.900 164.335 L 163.800 164.737 164.882 164.768 C 166.035 164.802,166.214 165.261,166.530 169.000 C 166.605 169.880,166.696 169.295,166.733 167.700 L 166.800 164.800 168.100 164.747 L 169.400 164.695 168.007 164.447 L 166.613 164.200 165.806 159.400 C 164.858 153.758,163.930 151.803,162.757 152.976 M52.500 153.876 C 52.885 153.976,53.515 153.976,53.900 153.876 C 54.285 153.775,53.970 153.693,53.200 153.693 C 52.430 153.693,52.115 153.775,52.500 153.876 M302.843 154.923 C 302.767 157.605,303.548 159.851,304.735 160.363 L 305.800 160.822 304.888 160.100 C 304.211 159.565,303.836 158.609,303.432 156.389 C 303.016 154.111,302.876 153.762,302.843 154.923 M48.480 154.880 C 48.216 155.144,48.029 155.999,48.064 156.780 L 48.128 158.200 48.297 156.802 C 48.389 156.032,48.653 155.177,48.882 154.902 C 49.412 154.262,49.114 154.246,48.480 154.880 M248.000 155.218 C 245.690 155.624,243.113 155.966,242.274 155.978 C 239.162 156.023,239.059 156.230,239.377 161.814 C 239.742 168.209,239.715 168.259,235.704 168.579 C 233.997 168.715,231.899 169.015,231.043 169.246 L 229.486 169.666 229.745 173.133 C 229.888 175.040,230.113 177.417,230.245 178.416 C 230.546 180.696,229.965 181.031,225.004 181.434 C 220.350 181.811,220.242 181.977,220.624 188.170 C 220.968 193.765,220.934 193.825,217.115 194.209 C 215.547 194.366,213.725 194.650,213.065 194.839 C 212.406 195.028,208.792 195.463,205.033 195.806 C 201.275 196.149,197.300 196.599,196.200 196.806 C 195.100 197.013,191.050 197.460,187.200 197.800 C 183.350 198.140,178.670 198.674,176.800 198.986 C 174.930 199.299,170.970 199.753,168.000 199.995 C 165.030 200.237,161.160 200.694,159.400 201.010 C 149.209 202.839,148.444 202.575,148.151 197.130 C 147.816 190.900,147.529 190.547,143.309 191.164 L 141.000 191.502 144.100 191.551 C 145.805 191.578,147.217 191.645,147.238 191.700 C 147.260 191.755,147.409 193.905,147.571 196.478 C 147.963 202.707,147.830 202.576,153.396 202.271 C 155.818 202.139,159.240 201.760,161.000 201.429 C 162.760 201.099,166.900 200.641,170.200 200.414 C 177.057 199.940,179.379 199.704,182.200 199.194 C 183.300 198.994,186.990 198.632,190.400 198.388 C 193.810 198.144,197.860 197.696,199.400 197.394 C 200.940 197.091,204.990 196.638,208.400 196.388 C 214.980 195.904,217.223 195.576,219.800 194.721 L 221.400 194.190 221.400 188.930 C 221.400 186.037,221.547 183.522,221.727 183.341 C 222.157 182.909,226.220 182.058,228.011 182.026 C 231.104 181.969,232.039 179.125,230.772 173.627 C 230.078 170.618,230.772 169.606,233.549 169.576 C 240.284 169.505,240.462 169.316,240.315 162.400 L 240.200 157.000 242.000 156.899 C 245.952 156.677,251.835 155.962,253.288 155.526 C 255.470 154.873,255.668 155.247,256.003 160.649 C 256.406 167.162,257.256 167.704,264.659 166.175 C 268.378 165.407,268.029 164.929,268.470 171.383 C 269.125 180.956,268.130 180.400,284.600 180.400 C 299.354 180.400,299.310 180.408,299.153 177.854 C 298.956 174.643,299.973 174.176,308.880 173.388 C 312.686 173.051,317.240 172.506,319.000 172.176 C 322.332 171.551,338.359 170.625,338.767 171.034 C 338.895 171.163,339.028 172.918,339.063 174.934 C 339.346 191.326,339.119 190.661,344.490 190.864 C 346.750 190.950,348.825 191.161,349.100 191.333 C 349.493 191.580,349.600 197.872,349.600 220.600 C 349.600 243.327,349.492 249.621,349.100 249.869 C 348.825 250.042,346.663 250.253,344.296 250.337 C 340.285 250.478,339.980 250.547,339.807 251.344 C 339.621 252.194,339.072 275.686,339.192 277.600 C 339.227 278.150,339.340 296.868,339.444 319.196 C 339.567 345.599,339.773 359.934,340.034 360.196 C 340.256 360.418,342.453 360.690,344.918 360.800 L 349.400 361.000 349.600 370.240 C 349.752 377.248,349.933 379.639,350.349 380.140 C 350.919 380.825,356.638 381.100,358.720 380.543 L 359.640 380.296 359.520 370.967 C 359.378 359.895,359.761 360.668,354.282 360.400 L 350.200 360.200 350.099 305.843 C 350.024 266.003,350.117 251.340,350.448 250.943 C 350.767 250.558,351.969 250.400,354.587 250.400 C 360.145 250.400,359.581 253.746,359.608 220.619 L 359.631 192.285 358.746 191.342 C 357.946 190.491,357.520 190.400,354.344 190.400 C 349.654 190.400,350.000 191.796,350.000 172.888 C 350.000 155.543,349.937 156.039,352.200 155.488 C 352.940 155.307,352.934 155.289,352.122 155.246 C 351.640 155.221,350.773 155.606,350.196 156.102 L 349.147 157.004 349.186 173.082 L 349.225 189.159 347.913 189.402 C 347.191 189.536,345.250 189.590,343.600 189.523 L 340.600 189.400 340.400 180.200 C 340.159 169.139,340.259 169.450,337.041 169.717 C 329.927 170.307,317.972 171.601,316.400 171.952 C 315.410 172.173,311.540 172.636,307.800 172.980 C 304.060 173.325,300.259 173.866,299.354 174.183 C 298.449 174.500,295.029 174.953,291.754 175.191 C 288.479 175.428,284.270 175.892,282.400 176.221 C 270.309 178.347,269.990 178.220,269.344 171.052 C 268.768 164.655,268.750 164.631,264.717 164.983 C 263.005 165.132,261.093 165.401,260.469 165.580 C 258.073 166.267,257.317 165.028,256.796 159.557 C 256.246 153.786,256.222 153.774,248.000 155.218 M138.800 156.020 C 137.073 156.244,137.311 156.272,139.907 156.150 C 143.860 155.964,143.685 155.737,144.387 161.959 C 144.937 166.843,145.208 166.477,140.384 167.360 C 135.927 168.175,136.120 168.193,135.454 166.900 C 133.802 163.695,133.640 157.186,135.200 156.756 C 136.082 156.512,136.100 156.475,135.349 156.440 C 133.759 156.365,133.468 157.293,133.773 161.450 C 134.269 168.208,135.058 168.915,140.839 167.792 C 145.198 166.946,145.191 166.941,145.609 171.065 L 145.927 174.200 145.873 170.802 L 145.819 167.405 147.010 167.150 L 148.200 166.895 147.090 166.847 C 145.706 166.788,145.449 166.159,144.786 161.197 C 144.012 155.408,143.947 155.352,138.800 156.020 M312.769 158.873 C 312.132 159.355,310.682 159.775,308.969 159.974 C 306.689 160.238,306.518 160.302,308.000 160.338 C 310.324 160.393,312.747 159.825,313.532 159.039 C 314.469 158.102,313.940 157.987,312.769 158.873 M48.487 159.200 C 48.483 159.750,48.624 160.650,48.800 161.200 C 49.231 162.544,49.231 161.092,48.800 159.400 C 48.526 158.322,48.494 158.302,48.487 159.200 M108.000 159.625 C 107.010 159.809,103.142 160.245,99.404 160.594 C 95.666 160.943,91.616 161.482,90.404 161.793 C 89.192 162.103,85.860 162.555,83.000 162.797 C 80.140 163.038,76.900 163.407,75.800 163.617 C 74.700 163.826,70.994 164.263,67.565 164.586 C 58.233 165.468,58.933 164.328,59.200 178.200 C 59.440 190.698,59.737 189.977,54.343 189.991 C 50.196 190.002,50.400 190.299,50.400 184.247 C 50.400 179.026,50.259 178.772,47.420 178.870 L 45.400 178.940 47.193 179.097 C 49.531 179.303,49.588 179.434,49.588 184.600 C 49.588 190.297,49.725 190.132,44.789 190.389 C 38.952 190.693,39.600 184.364,39.600 241.027 C 39.600 284.487,39.532 289.959,38.986 290.412 C 38.507 290.809,36.564 290.860,30.200 290.643 C 21.747 290.355,19.978 290.595,19.548 292.085 C 19.183 293.351,19.641 400.000,20.011 400.000 C 20.269 400.000,20.403 381.346,20.397 346.348 C 20.391 306.853,20.509 292.551,20.843 292.148 C 21.436 291.433,28.017 291.377,28.720 292.080 C 29.089 292.449,29.200 305.031,29.200 346.280 L 29.200 400.000 54.800 400.000 L 80.400 400.000 80.400 390.782 L 80.400 381.564 79.361 380.525 C 78.364 379.528,78.191 379.496,75.003 379.721 C 70.547 380.035,70.189 379.677,70.348 375.067 C 70.504 370.561,70.110 370.204,64.980 370.190 C 60.428 370.178,60.780 370.565,60.656 365.442 C 60.526 360.120,60.658 360.249,55.082 360.000 L 50.600 359.800 50.400 326.271 C 50.290 307.831,50.344 292.486,50.520 292.171 C 50.936 291.429,57.990 291.350,58.720 292.080 C 59.019 292.379,59.200 293.864,59.200 296.026 C 59.200 298.927,59.335 299.664,60.029 300.546 L 60.858 301.600 69.615 301.600 C 80.207 301.600,79.137 300.482,79.183 311.595 C 79.225 321.656,79.035 321.200,83.199 321.200 C 84.905 321.200,86.843 321.309,87.506 321.441 L 88.712 321.682 88.864 325.790 C 89.080 331.609,88.271 331.200,99.573 331.200 C 111.269 331.200,110.480 331.584,110.778 325.748 L 111.000 321.400 119.977 321.292 C 131.520 321.153,130.400 322.221,130.400 311.364 C 130.400 299.074,131.268 300.014,119.924 300.006 C 113.641 300.002,111.166 299.868,110.952 299.523 C 110.790 299.260,110.703 295.339,110.760 290.810 C 110.897 279.771,110.603 279.278,104.246 279.869 C 100.295 280.236,100.400 280.505,100.400 269.986 C 100.400 259.396,100.793 260.076,94.584 259.914 L 90.200 259.800 90.096 240.546 C 89.975 218.137,90.506 220.266,85.015 220.176 C 82.977 220.142,81.105 219.989,80.855 219.834 C 80.525 219.630,80.400 214.377,80.400 200.790 C 80.400 179.004,79.825 181.200,85.525 181.200 C 87.920 181.200,89.241 181.033,89.522 180.694 C 89.998 180.120,90.268 165.398,89.821 164.336 C 89.466 163.491,90.047 163.318,94.400 162.972 C 96.270 162.823,98.424 162.446,99.188 162.134 C 99.951 161.823,102.885 161.392,105.708 161.177 C 108.531 160.962,111.054 160.744,111.314 160.693 C 111.831 160.591,112.295 163.497,112.360 167.256 C 112.427 171.037,115.484 172.349,121.001 170.964 C 123.150 170.425,124.400 173.299,124.400 178.777 C 124.400 179.896,124.663 180.663,125.246 181.246 C 126.151 182.151,125.935 182.153,131.742 181.183 C 135.250 180.596,135.233 180.576,135.860 186.094 C 136.442 191.224,136.959 192.044,139.544 191.943 L 141.000 191.886 139.403 191.643 C 137.379 191.335,137.027 190.621,136.336 185.426 C 135.654 180.293,135.353 179.928,132.223 180.444 C 130.915 180.659,128.845 180.782,127.623 180.718 L 125.400 180.600 125.000 175.840 C 124.504 169.934,123.937 169.204,120.427 169.957 C 114.295 171.272,113.697 170.776,113.002 163.800 C 112.535 159.120,112.202 158.842,108.000 159.625 M286.100 162.687 C 286.705 162.778,287.695 162.778,288.300 162.687 C 288.905 162.595,288.410 162.520,287.200 162.520 C 285.990 162.520,285.495 162.595,286.100 162.687 M174.400 163.982 C 174.730 164.205,175.312 164.391,175.692 164.394 C 176.443 164.401,176.713 165.190,176.925 168.000 C 177.052 169.693,177.064 169.668,177.130 167.576 C 177.210 165.042,176.737 164.212,175.000 163.836 C 174.121 163.645,173.960 163.684,174.400 163.982 M170.500 164.287 C 171.105 164.378,172.095 164.378,172.700 164.287 C 173.305 164.195,172.810 164.120,171.600 164.120 C 170.390 164.120,169.895 164.195,170.500 164.287 M43.505 166.683 C 44.002 166.779,44.722 166.775,45.105 166.675 C 45.487 166.575,45.080 166.496,44.200 166.501 C 43.320 166.505,43.007 166.587,43.505 166.683 M38.500 167.076 C 38.885 167.176,39.515 167.176,39.900 167.076 C 40.285 166.975,39.970 166.893,39.200 166.893 C 38.430 166.893,38.115 166.975,38.500 167.076 M35.000 167.619 C 34.442 167.871,34.685 167.907,35.800 167.738 C 36.680 167.604,37.475 167.428,37.567 167.347 C 37.910 167.044,35.768 167.271,35.000 167.619 M177.267 172.476 C 177.230 173.728,177.019 174.865,176.797 175.002 C 176.547 175.156,176.623 175.480,176.997 175.854 C 177.329 176.186,177.605 176.669,177.612 176.929 C 177.659 178.839,179.203 186.170,179.647 186.595 C 180.106 187.034,180.643 187.029,182.800 186.568 L 185.400 186.013 182.697 186.218 C 179.436 186.465,179.508 186.568,178.647 180.404 C 177.963 175.498,178.047 175.301,180.933 175.078 C 182.603 174.948,182.517 174.929,180.487 174.978 C 177.705 175.046,177.762 175.106,177.474 171.800 C 177.365 170.553,177.320 170.703,177.267 172.476 M166.859 173.675 L 166.800 176.351 165.100 176.572 C 164.165 176.694,162.860 176.865,162.200 176.952 C 161.540 177.039,162.205 177.090,163.677 177.065 C 167.003 177.009,166.762 176.706,167.644 182.055 C 168.514 187.338,168.531 187.301,164.883 188.138 C 158.552 189.592,158.597 189.611,157.989 185.154 C 156.902 177.193,156.684 178.121,159.800 177.462 C 160.240 177.369,159.745 177.272,158.700 177.246 L 156.800 177.200 156.736 175.500 C 156.675 173.882,156.664 173.868,156.507 175.200 C 156.284 177.099,156.136 177.197,152.542 177.831 C 147.687 178.686,146.862 178.613,146.573 177.300 C 146.188 175.554,146.065 175.334,146.032 176.326 C 145.945 178.862,147.299 179.261,152.791 178.319 C 156.329 177.712,156.247 177.621,157.221 183.234 C 158.414 190.103,158.186 189.839,162.337 189.183 C 168.521 188.206,168.916 187.853,168.369 183.780 C 167.352 176.204,167.092 177.041,170.732 176.171 C 171.980 175.872,173.720 175.595,174.600 175.554 C 175.989 175.490,176.042 175.457,175.000 175.302 C 174.340 175.204,172.491 175.347,170.891 175.620 C 167.475 176.203,167.476 176.203,167.161 173.269 L 166.918 171.000 166.859 173.675 M28.893 173.600 C 28.893 174.370,28.975 174.685,29.076 174.300 C 29.176 173.915,29.176 173.285,29.076 172.900 C 28.975 172.515,28.893 172.830,28.893 173.600 M185.391 174.763 C 187.859 175.057,188.128 175.520,188.808 180.657 C 189.364 184.858,189.284 185.094,187.137 185.602 C 185.940 185.885,185.911 185.922,186.856 185.959 C 189.275 186.053,189.759 184.993,189.253 180.705 C 189.004 178.592,188.800 176.669,188.800 176.432 C 188.800 175.309,187.185 174.400,185.300 174.463 L 183.400 174.526 185.391 174.763 M29.212 178.526 C 29.188 179.178,30.040 180.400,30.514 180.394 C 30.849 180.390,30.865 180.296,30.566 180.094 C 30.327 179.932,29.927 179.440,29.678 179.000 C 29.428 178.560,29.219 178.347,29.212 178.526 M41.300 179.476 C 41.685 179.576,42.315 179.576,42.700 179.476 C 43.085 179.375,42.770 179.293,42.000 179.293 C 41.230 179.293,40.915 179.375,41.300 179.476 M270.526 190.003 C 268.820 190.690,268.705 191.526,269.015 201.059 C 269.284 209.344,269.371 210.109,270.153 211.103 C 271.118 212.328,271.072 210.835,270.870 234.679 L 270.748 249.159 268.874 249.451 C 267.843 249.612,258.720 249.757,248.600 249.772 L 230.200 249.800 230.000 245.759 C 229.734 240.381,229.753 240.400,224.551 240.400 C 219.047 240.400,218.800 240.620,218.800 245.524 C 218.800 250.530,218.830 250.557,224.565 250.739 C 228.977 250.879,229.202 250.927,229.234 251.743 C 229.252 252.214,229.297 254.190,229.334 256.132 C 229.421 260.757,229.172 260.610,237.454 260.937 C 247.889 261.348,298.911 261.244,299.600 260.809 C 300.051 260.524,300.250 259.346,300.401 256.047 C 300.512 253.637,300.692 251.574,300.802 251.465 C 300.911 251.356,304.838 251.135,309.529 250.974 C 320.407 250.602,319.931 251.017,319.628 242.175 C 319.562 240.255,318.245 239.600,314.444 239.600 C 311.559 239.600,308.790 239.155,308.068 238.575 C 307.995 238.516,308.145 238.076,308.402 237.597 C 308.710 237.020,308.852 234.439,308.819 229.965 C 308.755 221.208,308.523 221.600,313.770 221.600 C 317.207 221.600,318.067 221.474,318.828 220.858 L 319.744 220.116 319.750 206.247 C 319.758 189.547,320.119 190.625,314.489 190.559 C 312.570 190.537,307.940 190.322,304.200 190.082 C 296.083 189.560,271.767 189.503,270.526 190.003 M296.394 191.415 C 310.314 191.570,318.279 191.804,318.438 192.061 C 319.423 193.656,319.567 218.948,318.596 219.955 C 318.023 220.550,317.933 220.555,300.672 221.011 C 288.425 221.335,289.200 221.691,289.200 215.728 L 289.200 211.580 288.104 211.163 C 287.449 210.914,283.914 210.782,279.328 210.835 C 272.715 210.911,271.506 210.830,270.624 210.253 L 269.600 209.582 269.600 201.024 L 269.600 192.467 270.700 191.653 C 271.468 191.085,272.222 190.889,273.200 191.005 C 273.970 191.097,284.408 191.281,296.394 191.415 M48.567 191.843 C 49.139 192.062,49.200 196.735,49.200 240.653 L 49.200 289.220 48.174 289.610 C 46.817 290.126,42.153 290.110,41.174 289.586 C 40.021 288.969,39.949 192.703,41.100 192.032 C 41.858 191.590,47.535 191.447,48.567 191.843 M358.187 191.979 C 358.696 192.803,358.411 248.963,357.895 249.410 C 357.581 249.683,356.158 249.759,354.000 249.620 L 350.600 249.400 350.498 221.400 C 350.441 206.000,350.490 192.995,350.605 192.500 C 350.830 191.536,357.625 191.069,358.187 191.979 M309.601 240.637 C 311.010 241.056,312.802 241.228,314.811 241.137 C 319.001 240.949,319.200 241.152,319.200 245.600 C 319.200 250.237,319.820 249.965,308.968 250.092 L 299.800 250.200 299.687 254.915 C 299.576 259.547,299.557 259.636,298.561 260.015 C 297.182 260.539,232.405 260.534,231.026 260.010 C 229.847 259.562,229.371 251.403,230.500 250.994 C 230.775 250.894,239.370 250.723,249.600 250.615 C 259.830 250.506,275.175 250.312,283.700 250.183 L 299.200 249.949 299.200 246.354 C 299.200 242.755,299.765 240.721,300.892 240.268 C 302.043 239.805,307.590 240.040,309.601 240.637 M228.934 241.791 C 229.483 242.340,229.516 247.778,228.980 249.500 C 228.808 250.054,220.971 250.226,220.144 249.694 C 219.766 249.451,219.339 244.024,219.548 242.129 C 219.664 241.082,227.928 240.785,228.934 241.791 M348.311 251.823 L 349.200 252.445 349.200 305.972 L 349.200 359.498 347.700 359.676 C 346.875 359.774,345.390 359.816,344.400 359.769 C 343.410 359.722,342.105 359.665,341.500 359.642 L 340.400 359.600 340.400 305.820 C 340.400 255.023,340.439 252.017,341.100 251.632 C 342.236 250.970,347.284 251.104,348.311 251.823 M358.400 369.800 C 358.557 376.397,358.487 378.342,358.072 378.863 C 357.317 379.809,351.318 379.792,350.849 378.842 C 350.446 378.024,350.267 365.362,350.625 362.973 L 350.895 361.171 354.548 361.286 L 358.200 361.400 358.400 369.800 M370.300 380.687 L 369.200 380.853 369.200 390.427 C 369.200 399.811,369.216 400.000,370.020 400.000 C 370.824 400.000,370.839 399.825,370.777 391.193 C 370.702 380.716,370.466 381.273,375.003 381.239 C 379.253 381.208,378.981 380.512,378.845 391.091 C 378.764 397.317,378.860 400.000,379.165 400.000 C 380.024 400.000,379.741 381.851,378.869 381.062 C 378.153 380.415,373.453 380.209,370.300 380.687 " stroke="none" fill="#d28523" fill-rule="evenodd"></path></g></svg>